<svg width="1581" height="1434" xmlns="http://www.w3.org/2000/svg" xmlns:xlink="http://www.w3.org/1999/xlink" xml:space="preserve" overflow="hidden"><defs><clipPath id="clip0"><rect x="1329" y="371" width="1581" height="1434"/></clipPath><clipPath id="clip1"><rect x="1329" y="371" width="1581" height="1434"/></clipPath><clipPath id="clip2"><rect x="1989" y="709" width="810" height="1057"/></clipPath><clipPath id="clip3"><rect x="1989" y="709" width="810" height="1057"/></clipPath></defs><g clip-path="url(#clip0)" transform="translate(-1329 -371)"><g clip-path="url(#clip1)"><g clip-path="url(#clip2)"><g clip-path="url(#clip3)"><g><path d="M550.702 177.225 552.277 177.103 551.232 178.345 551.853 180.405 551.08 182.025 548.566 179.087 549.96 178.966 549.793 177.149 550.702 177.225ZM549.642 170.803 550.989 170.924 551.626 171.924 551.005 172.999 550.247 172.575 548.733 173.59 549.43 175.801 548.112 178.073 547.082 178.073 546.249 178.027 545.356 177.558 543.826 177.24 543.099 176.694 543.629 175.922 541.509 175.862 542.069 174.968 540.464 173.802 538.859 175.377 538.783 172.378 540.494 172.075 540.631 173.348 543.175 171.969 543.614 173.454 545.477 173.499 545.825 171.863 548.309 171.954 549.642 170.803ZM534.618 169.319 535.769 170.197 535.391 173.378 534.421 174.362 533.785 173.454 533.058 174.711 530.075 174.923 529.333 173.681 529.999 172.257 533.058 172.151 534.573 170.576 534.618 169.319ZM530.151 144.603 532.392 146.36 532.119 149.268 531.498 148.253 529.696 148.934 530.029 148.329 528.636 147.481 530.151 144.603ZM545.113 128.414 546.446 129.383 545.462 133.002 542.524 132.139 542.599 129.595 545.113 128.414ZM518.05 126.657 522.987 133.926 529.045 136.137 529 137.228 527.47 138.197 527.773 139.484 526.819 139.424 526.531 139.469 527.122 141.665 528.076 141.408 530.09 143.043 531.816 142.74 530.544 143.846 529.075 143.543 527.197 144.527 524.411 145.057 523.623 144.33 523.76 146.966 524.805 147.995 526.622 147.92 526.44 148.48 524.562 150.661 523.426 152.054 523.729 149.056 522.669 148.48 521.942 150.025 521.139 151.191 523.017 152.191 523.245 155.825 521.912 155.431 522.533 157.067 521.624 157.113 521.427 158.067 523.805 161.504 525.728 161.777 526.213 160.323 530.075 159.308 529.787 161.292 526.198 161.641 525.38 162.928 523.502 163.231 525.622 166.896 524.805 168.304 526.334 173.62 528.545 176.71 526.576 176.513 527.364 175.877 525.683 174.438 524.244 175.801 521.73 176.316 519.64 172.515 520.443 170.924 518.58 172.711 518.595 173.62 518.762 175.059 519.428 175.74 519.292 178.497 521.382 180.617 522.078 178.315 523.426 178.451 524.411 177.088 526.925 177.512 527.273 179.072 528.212 179.254 528.878 177.921 532.225 177.967 533.028 179.799 531.301 182.586 534.043 180.132 534.603 180.011 537.435 182.843 539.192 182.555 538.737 180.556 541.918 180.026 543.811 182.283 544.432 182.904 545.855 185.281 548.082 183.934 549.127 185.63 550.974 184.115 554.382 186.13 556.441 189.492 555.76 191.097 551.838 192.218 549.823 190.567 548.672 190.991 548.566 193.838 544.432 193.369 543.599 192.066 540.979 195.428 539.752 199.487 537.799 199.411 536.587 198.245 535.845 199.32 536.284 200.774 536.86 200.169 538.283 201.653 539.752 204.727 538.647 206.741 535.103 206.438 535.921 207.741 534.966 208.498 534.83 210.558 530.877 209.589 530.741 211.648 528.303 213.102 525.441 214.617 525.077 213.965 524.305 214.738 524.532 216.525 523.547 217.388 521.155 215.162 512.416 195.019 512.386 193.111 513.87 192.46 516.414 192.929 517.626 191.96 519.504 192.566 519.852 194.398 518.928 195.625 520.094 197.17 519.686 199.623 521.336 200.199 522.457 206.499 524.093 206.802 522.154 200.926 523.517 201.456 524.774 201.804 527.379 201.395 522.245 200.517 521.321 199.442 524.305 198.563 526.41 195.852 527.485 196.049 527.273 197.443 530.893 193.46 532.407 194.368 533.513 193.808 533.831 194.959 535.481 193.611 534.058 192.566 533.013 193.656 532.134 193.399 531.271 193.096 528.788 190.082 525.804 190.734 526.289 189.991 524.411 188.78 526.364 187.023 525.274 184.963 527.243 184.555 528.924 185.569 529.59 184.464 527.303 184.07 526.228 183.782 523.729 184.857 522.351 183.934 520.852 184.494 518.005 187.811 517.187 187.311 516.248 189.431 516.732 190.855 514.476 190.143 514.097 189.28 513.522 190.946 510.826 192.914 509.312 193.005 508.191 185.584 505.934 180.45 505.223 175.331 497.65 162.186 490.199 151.494 490.608 148.874 492.516 147.874 494.546 147.39 498.483 154.659 502.921 157.37 502.194 160.066 502.845 160.414 504.42 161.868 506.358 160.747 506.616 159.763 504.753 158.824 505.419 157.325 506.828 156.673 504.586 150.949 505.904 146.723 503.784 144.755 503.284 145.784 501.709 146.208 499.831 144.209 499.18 144.951 497.135 144.785 495.424 143.664 496.393 138.924 497.302 138.364 500.785 139.969 503.814 138.742 504.193 137.182 507.449 134.517 508.267 135.092 508.857 132.957 511.916 131.821 512.098 129.792 515.127 128.641 515.279 126.611 517.278 125.067 518.05 126.657ZM563.12 119.963 564.09 120.629 563.559 122.871 564.529 122.31 564.726 123.81 565.937 123.931 564.695 124.658 564.922 126.324 565.437 126.43 569.466 128.671 568.179 130.095 568.391 132.457 567.361 132.957 568.572 135.365 569.693 135.35 571.707 137.44 572.146 139.075 570.511 141.604 567.527 140.287 567.861 139.333 568.739 139.56 568.375 138.106 566.725 138.939 565.119 138.636 565.483 135.138 563.287 135.713 562.878 134.532 562.045 134.638 559.198 132.291 558.441 133.32 557.835 131.624 557.789 129.686 558.865 129.883 559.501 131.185 560.758 131.2 560.076 129.686 560.349 128.459 559.607 127.671 560.546 127.081 557.85 126.233 558.138 125.218 558.925 125.93 561.712 124.885 559.637 123.128 559.743 121.235 563.12 119.963Z" fill="#000000" fill-rule="nonzero" fill-opacity="1" transform="matrix(1 0 0 1.00016 1990 709)"/><path d="M597.953 224.218 599.316 224.96 603.662 231.397 608.16 236.213 607.615 236.879 603.662 233.244 603.147 235.062 600.618 233.668 600.482 231.366 602.92 232.093 597.741 226.126 597.953 224.218ZM612.582 345.799 614.082 344.39 615.475 344.254 615.536 342.179 614.43 340.559 615.702 338.817 614.37 336.879 614.097 332.881 612.492 332.699 611.992 334.122 609.766 333.759 606.722 330.033 605.571 327.61 606.57 327.625 605.071 326.156 604.359 324.384 605.131 324.082 605.525 321.053 611.613 322.764 614.052 320.583 609.084 314.753 611.038 311.133 611.098 309.073 611.871 308.77 606.964 306.59 605.798 307.044 605.086 305.272 601.936 305.681 601.451 304.242 602.405 303.47 602.087 301.562 603.693 301.758 607.191 297.548 608.175 300.426 609.387 300.774 609.493 302.364 612.476 302.425 615.354 300.895 615.308 300.108 617.08 299.835 618.186 301.44 616.793 304.424 620.261 305.923 622.154 301.516 627.439 303.53 626.955 302.092 628.954 293.565 626.591 290.824 623.184 290.112 621.048 287.689 619.292 287.962 617.035 286.811 616.929 285.221 616.278 284.251 615.505 284.554 613.824 279.92 614.597 279.617 612.87 274.195 613.597 273.105 612.734 271.818 611.962 272.121 612.083 270.863 609.19 268.743 605.237 268.652 602.345 266.517 602.027 264.609 599.952 262.973 597.362 262.746 597.271 261.171 596.06 260.823 595.318 258.278 597.423 257.082 596.393 256.264 596.741 255.325 595.318 254.659 595.666 253.72 594.591 252.115 595.363 251.827 593.349 250.979 594.5 246.92 593.076 242.634 589.229 236.834 589.487 234.32 587.533 230.609 589.048 229.246 587.518 226.172 589.002 224.021 590.487 226.308 592.849 226.248 591.956 224.158 591.183 224.445 590.547 223.461 591.85 221.795 592.667 222.31 593.773 221.114 593.046 219.357 594 219.417 594.5 218.024 593.682 217.509 595.166 216.979 595.151 218.812 598.21 223.703 597.392 223.885 596.878 222.552 595.393 223.37 594.591 225.93 595.742 225.99 595.757 225.081 597.423 227.277 594 228.746 595.969 230.246 594.576 230.67 594.212 232.048 595.348 231.336 595.999 233.017 597.074 231.73 597.498 233.078 596.332 233.653 598.225 234.486 597.589 235.425 598.119 236.591 599.634 235.455 600.845 236.516 601.89 235.637 600.876 238 604.147 238.378 604.344 240.105 606.797 238.166 607.842 238.863 607.691 240.801 608.645 238.802 609.069 240.271 607.721 242.301 608.16 243.21 609.66 241.695 612.355 242.074 612.673 240.953 611.386 240.256 609.326 238.696 609.387 236.546 608.524 235.97 609.023 235.471 613.885 239.863 624.229 245.739 625.546 245.375 626.409 243.906 627.258 245.496 637.889 252.675 642.993 254.765 653.912 257.279 658.819 258.778 659.818 260.686 666.179 262.413 661.802 261.974 661.863 263.246 664.18 263.624 664.816 264.791 665.922 265.003 667.27 264.094 667.058 262.61 680.885 262.398 686.488 259.763 686.427 258.642 690.032 256.582 690.471 254.81 692.243 253.326 692.47 251.357 693.909 249.419 695.953 247.662 698.134 245.466 697.21 243.982 699.497 242.74 700.694 239.454 704.01 239.211 705.903 237.863 707.948 238.091 709.932 236.455 711.068 233.926 711.734 235.062 713.93 234.865 716.247 231.896 715.763 228.943 717.216 230.14 718.943 229.292 721.472 229.458 723.017 233.456 719.109 233.396 715.46 234.516 715.142 235.455 716.732 240.423 715.793 241.21 716.293 242.619 715.187 243.891 716.535 245.769 718.973 243.543 721.154 245.875 715.036 252.084 708.66 271.772 707.887 272.09 700.482 265.411 699.088 265.578 698.407 264.654 697.241 265.139 699.134 268.41 697.65 269.834 698.498 270.303 698.634 271.863 696.696 272.651 696.059 274.529 696.741 275.467 693.424 276.422 693.333 277.679 690.592 279.405 686.791 280.329 687.245 280.965 686.321 281.752 687.442 283.327 685.276 288.658 671.813 295.625 672.873 302.122 671.874 302.122 670.995 303.697 669.556 303.046 668.572 305.893 667.406 306.362 667.845 306.999 665.301 307.619 664.089 310.164 662.711 310.315 662.651 309.512 660.349 310.436 658.925 312.647 659.364 313.299 657.017 316.282 653.458 316.055 651.322 313.632 649.626 314.707 648.793 314.207 647.309 315.616 645.658 314.631 644.507 315.086 643.841 316.979 642.857 316.964 643.129 318.084 641.145 318.039 640.494 322.794 641.1 322.961 639.994 324.203 640.449 327.716 634.164 334.259 635.284 338.742 625.531 338.878 623.653 343.315 625.395 347.98 623.562 347.465 620.836 348.54 622.396 350.812 619.064 351.72 612.582 345.799Z" fill="#000000" fill-rule="nonzero" fill-opacity="1" transform="matrix(1 0 0 1.00016 1990 709)"/><path d="M405.586 578.495 406.192 580.888 405.692 582.388 406.631 583.781 408.312 584.023 409.69 583.069 410.554 583.614 410.69 585.311 412.295 584.705 412.765 585.401 411.629 586.704 411.826 589.263 412.538 590.308 414.204 590.551 414.264 591.399 413.037 594.064 414.612 595.654 417.02 594.73 417.959 596.124 417.46 597.638 419.201 598.729 418.702 600.243 420.685 601.682 422.76 601.773 421.958 602.076 420.398 605.756 422.064 605.998 423.26 605.529 424.608 606.77 424.108 608.285 425.214 609.178 426.41 608.709 426.668 606.846 431.544 605.847 431.968 603.484 433.967 602.727 435.421 600.41 435.285 598.714 436.708 598.607 432.756 597.926 433.089 596.926 434.512 596.82 434.603 595.473 440.025 591.656 439.722 590.46 442.327 589.899 442.66 588.9 442.736 589.748 443.766 589.793 443.857 588.445 447.022 587.234 447.885 587.779 448.203 586.78 449.778 586.174 449.475 584.977 450.899 584.871 449.536 580.57 450.884 579.601 450.747 577.905 452.262 576.436 454.306 576.512 455.685 573.331 457.653 572.559 457.744 571.196 460.016 571.62 461.061 569.439 464.362 567.667 464.06 566.471 465.256 563.775 466.892 563.987 468.557 567.273 470.223 565.259 478.205 563.669 479.356 565.395 484.278 565.077 483.657 567.94 477.023 577.541 476.175 580.555 476.857 584.023 474.116 585.644 469.224 591.671 466.74 593.034 465.786 594.306 465.847 596.033 462.5 599.198 461.985 602.848 464.241 604.438 462.303 605.392 461.197 603.529 458.077 604.15 452.792 608.724 451.111 613.964 452.353 614.646 449.793 617.871 443.311 634.318 440.101 638.483 440.404 641.179 435.86 646.752 429.787 649.615 426.35 654.597 424.063 654.279 421.17 656.324 414.87 658.429 412.341 661.14 410.872 661.2 408.433 664.759 405.45 671.71 404.496 682.206 404.996 688.415 406.949 695.427 406.586 695.851 405.495 692.973 404.042 695.23 406.025 695.351 406.495 696.199 408.373 696.472 408.479 697.608 410.296 697.971 405.268 699.819 402.618 699.622 401.013 700.818 401.528 703.484 402.179 704.09 402.906 701.894 403.284 703.453 404.238 703.181 404.965 700.939 406.419 700.758 407.025 702 408.373 700.197 408.706 700.758 411.356 699.228 410.478 703.65 411.084 704.059 413.386 699.092 414.718 700.44 415.279 700.061 416.43 700.833 414.9 704.786 415.294 706.058 417.596 700.758 418.535 702.09 419.383 701.682 420.322 701.591 421.291 702.227 421.094 703.802 421.231 705.074 422.866 703.287 424.426 703.151 423.699 703.908 425.456 705.271 425.017 706.467 426.168 707.012 426.789 705.755 428.137 707.134 427.455 708.739 428.712 709.33 429.318 710.965 429.242 713.404 428.303 715.236 427.319 715.766 427.697 717.977 426.486 718.204 426.243 719.582 424.987 718.325 423.881 721.233 419.762 722.43 419.731 721.339 417.99 719.643 418.353 716.856 419.792 715.387 418.595 715.297 418.187 714.282 419.595 713.903 419.413 712.449 418.217 712.313 417.702 711.253 416.369 712.268 416.899 715.933 415.93 717.159 416.309 719.931 418.247 722.036 418.293 723.459 416.172 722.672 414.764 723.353 413.174 722.475 411.266 722.627 410.478 721.809 409.887 720.431 408.676 720.93 407.298 719.522 406.253 717.886 404.178 717.477 380.87 720.855 362.5 729.169 341.313 741.466 329.394 749.978 323.033 755.899 318.051 762.76 319.08 763.805 318.702 768.333 315.219 774.633 313.204 780.873 313.825 799.955 312.28 808.845 310.478 808.148 308.207 808.587 304.754 807.148 303.542 807.648 302.179 806.315 299.68 806.406 297.272 805.043 295.409 805.331 295.334 804.422 291.29 803.695 279.765 798.455 277.054 801.409 276.282 804.998 275.631 804.786 274.722 806.558 271.466 807.845 270.315 809.238 269.436 808.648 267.225 809.981 265.862 808.648 265.893 806.285 264.196 806.013 263.045 807.406 260.759 807.83 260.274 807.088 258.305 808.799 250.96 809.314 250.657 808.027 249.355 807.603 250.339 806.755 249.552 804.725 247.128 803.332 245.145 799.425 245.417 797.456 242.161 785.189 239.147 784.492 235.937 786.658 231.56 784.613 229.788 777.859 228.788 778.707 228.758 781.039 224.275 780.433 225.411 775.829 223.972 773.588 225.078 771.316 224.775 770.044 221.761 769.332 220.535 769.802 218.52 768.257 219.52 767.424 218.808 766.304 220.156 764.41 219.202 762.926 220.201 762.093 219.899 760.821 220.898 759.988 220.429 759.246 219.883 757.611 220.701 757.308 220.777 752.673 218.399 748.978 219.626 748.524 220.08 746.055 222.307 744.768 221.837 744.026 223.245 743.041 222.943 741.784 224.412 741.694 224.275 739.922 225.502 739.467 225.199 738.21 226.426 737.756 226.88 735.303 228.758 735.06 227.88 729.018 229.106 728.563 230.197 726.337 231.257 726.398 231.878 723.444 235.891 721.021 237.148 718.28 239.253 718.386 239.117 716.629 241.555 715.705 241.888 714.676 243.585 714.933 243.448 713.176 244.433 712.343 243.721 711.253 245.584 710.995 247.128 709.496 247.068 706.331 250.46 704.559 251.127 702.484 250.43 699.122 253.489 698.395 254.156 696.336 256.003 696.078 258.608 692.368 261.107 692.307 264.439 689.687 265.877 691.838 268.725 690.747 270.209 688.385 272.072 688.112 272.738 686.052 275.585 684.962 276.327 683.781 277.054 684.856 278.932 684.583 279.25 685.81 281.128 685.537 281.219 684.144 283.763 681.812 282.809 680.388 284.369 678.889 287.065 678.298 286.277 676.36 289.458 676.496 291.85 674.679 292.335 675.391 293.562 674.921 293.668 673.528 296.364 672.937 296.394 670.681 297.621 670.211 299.71 667.167 301.013 667.576 300.907 668.969 303.194 668.545 305.102 666.016 305.208 664.638 307.252 663.85 306.298 662.427 308.101 661.291 307.798 660.064 309.024 659.595 308.555 658.883 310.085 659.64 311.069 658.807 310.766 657.581 311.993 657.111 312.462 657.823 314.855 656.005 315.733 656.566 317.369 655.945 317.233 654.203 318.626 653.219 318.02 650.765 322.624 647.661 321.973 647.464 322.321 646.434 324.426 646.525 325.82 645.541 327.758 646.131 327.425 647.161 328.243 646.843 330.212 645.192 329.742 644.48 330.499 643.299 331.787 643.693 333.347 642.194 334.71 643.466 339.011 642.239 340.54 642.996 343.554 641.376 345.144 642.996 346.371 642.527 348.506 640.361 347.386 639.452 347.734 638.423 349.354 637.787 349.264 633.804 352.58 633.41 354.382 632.274 354.897 630.729 356.76 630.457 356.563 627.852 358.532 626.201 358.971 623.793 362.212 622.536 361.909 621.309 364.575 620.719 365.453 621.264 369.497 619.704 369.027 618.992 369.83 618.674 369.36 617.962 370.602 615.251 374.01 613.495 374.04 611.253 376.978 608.785 377.251 606.907 380.31 606.165 383.914 601.682 387.14 600.44 388.019 600.985 389.806 599.865 389.942 596.275 390.987 596.321 390.851 594.609 392.168 592.792 391.699 592.095 394.349 591.52 396.56 588.037 399.377 586.961 400.119 585.81 399.68 582.903 401.618 581.297 401.013 578.904 403.829 577.844 404.132 579.041 405.586 578.495Z" fill="#000000" fill-rule="nonzero" fill-opacity="1" transform="matrix(1 0 0 1.00016 1990 709)"/><path d="M1057.82 749.857 1059.38 750.493 1061.3 753.173 1061.86 752.931 1061.89 753.9 1060 755.172 1059.06 758.337 1057.62 758.928 1056.58 760.639 1055.79 759.776 1056.29 758.428 1055.23 758.156 1056.09 756.944 1055.4 756.066 1055.88 755.278 1055.06 754.99 1056.86 753.309 1054.62 751.356 1057 751.25 1057.82 749.857ZM1034.03 706.407 1039.25 708.83 1041.87 708.603 1042.22 710.072 1045.22 710.935 1049.28 710.677 1050.47 709.769 1053.29 710.844 1056.36 709.193 1057.73 709.784 1058.91 709.178 1059.68 710.117 1057.61 710.42 1056.82 713.101 1055.71 712.071 1054.26 712.146 1051.06 714.433 1047.35 720.749 1046.32 725.368 1045.66 724.656 1046.37 722.339 1045.61 718.25 1046.07 719.052 1047.22 716.826 1049.52 715.297 1047.78 712.661 1045.29 711.223 1042.86 710.905 1041.46 712.222 1040.34 710.45 1038.33 710.42 1037.86 713.025 1039.08 714.66 1044.85 715.857 1042.83 717.417 1041.87 717.084 1040.04 719.628 1040.72 722.324 1043.02 724.686 1042.45 727.594 1045.25 728.881 1045.84 726.064 1045.16 725.11 1046.07 725.216 1047.94 732.728 1051.79 734.167 1051.82 735.56 1042.84 737.604 1042.07 738.968 1040.13 739.513 1036.95 742.36 1033.51 741.709 1032.71 737.801 1031.8 737.362 1032.22 735.03 1030.51 732.365 1036.77 728.487 1037.19 726.716 1038.37 727.639 1039.45 726.473 1038.86 722.187 1035.89 717.114 1034.87 716.039 1032.22 715.933 1031.85 714.994 1031.42 715.887 1030.45 715.115 1030.3 716.644 1029.26 715.887 1029.65 717.053 1028.82 717.689 1026.41 717.947 1024.14 716.932 1024.74 718.098 1022.74 718.961 1021.3 718.204 1020.94 718.871 1018.97 718.598 1019.49 717.72 1018.18 717.114 1019.38 716.629 1019.84 714.312 1023.11 713.873 1022.33 711.738 1022.86 710.814 1026.83 712.465 1032.1 711.041 1033.62 709.39 1033.21 707.346 1034.03 706.407Z" fill="#000000" fill-rule="nonzero" fill-opacity="1" transform="matrix(1 0 0 1.00016 1990 709)"/><path d="M726.894 228.595 735.587 230.352 734.118 232.002 734.512 233.259 735.541 233.699 736.95 235.122 738.767 236.016 745.113 236.531 748.52 239.045 749.217 240.468 743.099 250.025 743.553 251.054 740.842 253.387 739.676 257.385 739.888 260.52 736.586 264.23 736.556 266.138 738.737 267.123 738.146 268.486 738.797 270.333 737.934 271.606 735.753 272.378 735.435 273.998 737.722 276.664 736.662 277.785 736.586 279.844 735.026 280.98 736.48 282.843 736.526 284.463 736.147 285.993 736.193 289.809 736.814 291.748 737.222 294.565 735.163 295.852 733.436 298.775 734.072 303.061 728.923 307.211 728.545 308.77 726.167 310.694 725.47 312.329 724.259 312.208 721.518 314.283 720.806 316.57 717.504 313.723 715.066 314.586 713.173 316.767 712.825 319.629 715.111 320.159 712.476 322.658 711.568 325.566 712.052 328.261 710.992 330.109 711.507 331.487 710.795 336.47 707.554 335.44 706.873 334.486 707.766 332.911 707.07 331.957 706.115 332.744 705.025 331.957 705.131 330.7 703.617 332.123 702.072 330.685 700.8 332.426 700.27 331.003 699.709 331.639 696.423 331.306 696.892 327.02 695.787 328.292 694.257 326.868 693.076 327.338 692.622 323.854 690.986 323.688 689.638 324.642 688.018 321.643 686.852 322.113 685.292 319.902 686.019 318.796 685.458 316.585 683.232 316.267 683.171 315.479 682.005 315.949 684.292 311.36 681.006 310.239 678.613 310.391 675.887 308.634 675.993 313.071 665.255 307.619 667.8 306.999 667.36 306.362 668.527 305.893 669.526 303.046 670.965 303.697 671.843 302.122 672.843 302.137 671.783 295.64 685.261 288.674 687.427 283.343 686.306 281.768 687.245 280.98 686.791 280.359 690.592 279.435 693.333 277.709 693.424 276.452 696.741 275.498 696.059 274.559 696.696 272.681 698.634 271.893 698.498 270.333 697.65 269.864 699.134 268.44 697.241 265.169 698.407 264.7 699.088 265.639 700.482 265.472 707.887 272.151 708.66 271.833 715.036 252.145 721.154 245.936 718.973 243.603 716.535 245.829 715.187 243.952 716.293 242.679 715.793 241.271 716.732 240.483 715.142 235.516 715.46 234.577 719.109 233.456 723.017 233.517 721.472 229.519 726.455 230.185 726.894 228.595Z" fill="#000000" fill-rule="nonzero" fill-opacity="1" transform="matrix(1 0 0 1.00016 1990 709)"/><path d="M635.451 447.616 633.437 447.495 631.877 446.026 631.165 447.162 627.969 445.496 627.651 446.48 624.759 445.95 624.214 444.466 621.7 443.784 622.018 442.8 620.533 442.118 622.835 440.347 621.503 439.18 622.305 436.727 620.988 435.561 621.472 434.092 619.882 429.639 621.094 427.034 619.155 425.702 618.398 423.884 617.156 423.536 617.974 421.098 616.49 420.431 616.429 419.614 614.4 419.599 614.733 418.629 612.961 416.812 611.326 416.63 611.265 415.812 607.994 415.449 606.873 416.736 604.42 413.934 606.191 410.693 605.116 409.876 605.843 408.74 605.389 408.089 606.676 406.317 605.828 405.817 609.22 394.837 608.872 392.899 609.66 392.581 609.705 390.475 611.053 389.521 608.69 387.553 609.675 384.66 607.312 382.691 609.887 382.085 611.265 379.041 613.052 378.738 613.779 377.618 616.899 376.376 618.125 376.709 616.914 371.393 617.641 370.273 617.02 370.106 618.519 368.682 617.838 367.713 618.837 367.728 618.777 366.926 616.868 365.623 614.854 365.593 614.566 364.472 615.354 364.169 615.399 362.079 617.126 360.989 616.505 357.93 613.764 356.128 611.371 356.249 609.705 352.372 609.705 349.494 609.811 348.222 613.097 346.511 612.658 345.859 619.064 351.569 622.396 350.66 620.836 348.404 623.562 347.329 625.395 347.843 623.653 343.179 625.531 338.742 635.284 338.605 634.164 334.122 640.449 327.58 639.994 324.066 641.1 322.825 640.494 322.658 641.145 317.903 643.129 317.948 642.857 316.827 643.841 316.842 644.507 314.949 645.658 314.495 647.309 315.479 648.793 314.086 649.626 314.586 651.322 313.511 653.458 315.949 657.017 316.176 659.364 313.193 658.925 312.541 660.349 310.33 662.651 309.406 662.711 310.209 664.089 310.058 665.301 307.529 676.038 312.996 675.932 308.558 678.658 310.315 681.051 310.164 684.338 311.284 682.051 315.873 683.217 315.404 683.277 316.191 685.519 316.509 686.079 318.72 685.352 319.826 686.912 322.037 688.093 321.568 689.714 324.566 691.062 323.627 692.697 323.794 693.167 327.277 694.348 326.808 695.878 328.246 696.998 326.974 696.544 331.26 699.83 331.593 700.391 330.957 700.921 332.381 702.208 330.639 703.753 332.078 705.267 330.669 705.177 331.926 706.267 332.729 707.221 331.942 707.918 332.896 707.024 334.471 707.706 335.425 710.947 336.47 710.129 339.893 711.037 344.012 711.901 345.027 713.794 345.723 714.566 345.223 717.095 346.829 712.491 351.342 711.401 356.006 708.826 358.944 707.554 352.659 706.282 350.721 707.251 350.221 709.356 344.981 707.539 343.133 706.449 344.527 701.936 342.891 697.241 342.467 682.172 343.452 669.481 348.086 662.953 351.463 660.197 353.826 658.88 358.611 654.382 364.124 652.701 364.972 650.913 368.758 650.292 372.877 651.201 375.028 653.337 374.498 653.276 380.495 655.941 386.084 659.606 387.992 662.408 386.78 663.529 387.537 658.819 394.277 657.486 399.471 658.198 402.697 653.867 409.876 651.247 416.812 650.747 419.084 651.625 420.749 650.277 422.552 650.338 424.869 648.778 425.808 645.34 432.078 644.871 431.502 642.463 432.365 638.873 435.273 638.571 439.711 635.451 447.616Z" fill="#000000" fill-rule="nonzero" fill-opacity="1" transform="matrix(1 0 0 1.00016 1990 709)"/><path d="M503.057 498.911 503.754 499.35 503.663 501.288 502.178 507.937 500.8 507.043 499.71 508.603 498.816 507.77 497.226 508.361 495.515 510.542 494.243 510.542 494.031 509.391 492.94 510.527 490.123 511.026 492.016 508.391 494.197 508.891 495.56 507.891 496.181 507.376 495.303 507.104 495.787 506.225 497.59 506.256 497.711 505.059 499.483 504.544 498.968 505.847 500.679 505.786 500.21 505.135 502.042 504.166 502.603 501.834 500.861 503.424 499.937 503.5 497.453 503.106 498.483 501.924 500.195 502.152 501.648 501.182 503.057 498.911ZM485.353 487.416 485.716 489.703 484.096 491.717 483.46 490.43 484.959 488.734 483.52 488.279 485.353 487.416ZM480.189 485.053 481.93 485.114 481.4 487.128 480.355 487.976 479.719 485.25 478.826 485.326 478.099 486.068 479.007 486.159 478.553 487.143 477.614 487.734 477.993 489.445 477.417 489.945 476.145 489.112 474.63 490.309 474.858 491.157 476.433 490.733 475.797 491.747 474.085 492.701 473.328 492.232 472.465 493.716 469.799 493.61 470.405 491.232 468.997 493.171 467.921 492.611 467.179 493.656 469.406 494.61 466.937 496.215 468.012 496.488 467.558 498.805 467.149 499.395 467.179 500.274 467.982 500.713 467.603 499.729 468.436 499.335 469.284 499.259 470.557 496.2 472.162 497.018 472.768 496.23 473.707 496.912 475.448 496.366 477.735 496.942 475.145 497.487 474.842 498.653 472.859 498.259 472.268 499.698 473.994 499.941 473.722 501.576 471.48 501.001 471.965 502.409 470.693 502.697 470.981 503.409 467.512 504.105 467.967 505.726 471.647 503.984 470.511 505.62 472.207 505.271 472.647 507.028 471.359 509.148 471.692 510.996 470.072 511.678 468.406 510.527 469.042 511.95 466.407 512.692 467.119 514.298 467.558 512.617 469.178 514.495 471.238 514.858 471.662 514.055 470.345 514.449 469.345 512.844 472.798 512.147 476.296 509.648 473.631 510.087 472.328 509.875 472.45 509.239 477.402 507.785 477.462 508.634 478.795 509.103 481.4 507.604 482.506 507.831 481.748 506.665 484.898 507.316 487.761 505.559 483.672 506.12 482.96 505.786 483.248 504.529 479.84 506.316 478.886 507.195 478.735 505.605 476.387 507.573 474.585 507.483 473.101 508.467 473.57 506.014 474.509 505.256 473.389 505.165 472.813 503.106 475.948 501.849 474.752 501.576 475.161 500.667 476.463 501.031 476.675 498.668 477.266 499.123 479.159 498.184 477.705 501.061 478.629 503.878 479.068 502.121 480.234 502.727 480.279 500.107 481.264 499.516 482.839 500.955 483.323 500.44 481.748 497.381 482.097 496.488 483.384 496.336 483.505 493.792 482.657 494.261 481.158 493.504 480.083 495.094 478.477 495.624 476.72 495.215 477.871 494.519 476.842 493.565 479.916 493.322 478.538 491.49 478.947 490.839 480.401 491.641 480.31 489.718 481.506 489.415 481.976 490.278 481.385 491.096 481.96 493.368 482.748 492.868 483.384 493.519 484.58 491.853 484.505 493.247 485.535 493.549 486.958 496.23 486.337 491.747 489.003 493.686 489.063 491.929 490.214 490.854 491.305 492.989 494.273 490.99 493.455 492.838 492.183 493.08 492.395 495.276 491.804 495.473 491.517 494.458 490.532 495.549 493.561 497.714 494.894 495.291 495.999 495.518 496.605 494.398 498.271 494.852 496.772 495.594 496.696 497.502 494.485 499.35 495.363 500.349 495.197 501.728 493.879 500.879 492.986 501.41 492.925 502.545 491.623 503.03 492.213 501.864 491.38 501.788 491.274 499.077 490.305 501.243 489.29 500.667 489.396 502.076 490.487 502.788 490.169 503.863 492.486 504.166 491.577 505.741 492.486 505.62 492.652 506.544 490.669 507.952 490.79 506.634 489.684 505.726 489.911 508.876 488.155 508.149 488.079 507.24 487.367 508.209 487.761 509.376 486.913 509.527 486.261 507.982 485.216 510.148 484.459 509.588 484.853 508.27 483.96 509.073 483.49 508.603 482.506 508.694 481.658 509.951 480.703 509.224 480.628 511.269 479.038 509.891 479.128 511.996 475.63 512.874 475.161 513.949 481.324 512.405 481.309 514.57 482.869 512.071 484.611 511.874 485.625 511.466 489.351 510.315 488.669 512.314 489.608 511.602 490.123 512.692 491.138 511.723 492.592 513.768 493.107 512.995 491.623 511.874 492.334 511.254 493.167 512.117 495.303 511.284 496.938 511.208 496.878 510.33 499.028 508.921 497.726 510.527 498.18 511.708 496.969 512.359 497.468 513.253 495.893 513.192 494 514.994 495.197 516.282 494.727 517.19 493.334 517.614 492.652 516.494 492.077 518.568 489.851 518.72 490.093 519.689 488.503 519.78 488.124 519.023 489.381 518.281 488.972 517.569 490.123 517.766 491.91 515.115 490.214 514.691 490.381 515.585 488.942 516.766 489.563 514.419 487.655 515.524 487.17 518.235 484.777 522.551 483.838 522.703 482.612 526.519 482.809 529.609 486.11 533.501 484.353 534.152 484.278 535.379 486.08 535.939 488.17 535.031 489.608 535.848 490.699 539.529 490.199 544.556 491.471 547.797 493.364 549.251 493.97 548.782 496.121 549.766 497.211 549.206 497.044 550.69 493.652 554.355 493.485 555.9 490.426 560.685 483.823 568.076 484.444 565.214 479.522 565.532 478.371 563.805 470.39 565.395 468.724 567.41 467.058 564.123 465.423 563.911 464.226 566.607 464.529 567.803 461.227 569.575 460.182 571.756 457.926 571.332 457.835 572.695 455.866 573.468 454.503 576.648 452.459 576.572 450.944 578.041 451.081 579.753 449.733 580.722 451.096 585.023 449.687 585.129 449.99 586.325 448.415 586.931 448.097 587.931 447.234 587.385 444.069 588.597 443.978 589.945 442.948 589.899 442.872 589.051 442.554 590.051 439.949 590.611 440.252 591.808 434.83 595.624 434.74 596.972 433.316 597.078 432.983 598.077 436.951 598.759 435.527 598.865 435.663 600.561 434.21 602.878 432.21 603.651 431.786 606.013 426.925 607.013 426.668 608.875 425.471 609.345 424.366 608.451 424.865 606.937 423.533 605.695 422.336 606.165 420.67 605.922 422.23 602.242 423.033 601.939 420.958 601.864 418.989 600.425 419.489 598.91 417.747 597.82 418.247 596.306 417.308 594.912 414.9 595.836 413.325 594.246 414.567 591.58 414.506 590.732 412.841 590.49 412.144 589.445 411.947 586.886 413.083 585.583 412.613 584.886 411.008 585.492 410.872 583.796 410.008 583.251 408.63 584.205 406.964 583.963 406.025 582.569 406.525 581.07 405.919 578.677 406.722 578.374 406.192 576.83 406.964 573.483 408.403 573.377 409.948 571.923 409.418 570.378 411.19 569.272 411.629 566.925 413.628 566.168 413.734 564.82 414.537 564.517 414.87 563.518 413.31 561.927 413.81 560.443 415.006 559.989 414.87 558.308 419.232 553.628 418.005 551.053 418.565 550.402 419.656 551.296 422.775 549.251 426.092 544.526 426.062 541.512 430.045 539.983 430.151 538.65 431.181 538.695 432.241 536.56 432.18 535.712 432.619 533.38 433.483 533.91 435.86 532.986 437.344 533.713 440.343 532.971 439.586 531.093 437.178 529.003 438.632 526.701 439.813 526.232 439.222 523.869 442.388 522.612 443.599 519.962 447.067 517.69 446.855 515.161 450.021 511.678 450.672 509.663 452.474 509.36 452.959 507.846 455.942 507.059 456.684 503.712 456.154 502.182 457.563 496.836 459.456 498.441 458.183 500.228 460.046 499.138 460.364 500.743 461.121 500.895 461.697 500.153 461.015 498.29 464.499 497.533 464.574 496.806 466.861 495.836 465.529 495.927 465.831 494.837 462.545 496.654 461.47 495.049 463.166 493.353 464.272 492.535 464.696 493.262 465.241 491.944 465.998 492.641 467.013 490.172 467.831 491.444 468.891 491.02 468.224 489.597 469.587 489.779 469.375 488.552 470.844 487.961 471.177 486.28 472.359 486.765 471.026 490.854 472.647 491.263 473.979 488.824 474.842 489.097 476.039 487.719 475.373 486.538 476.887 486.356 479.628 483.509 480.189 485.053ZM478.008 468.122 478.674 469.333 478.205 473.695 477.175 474.498 477.372 476.118 475.009 481.146 473.071 482.07 470.814 485.795 467.331 487.431 468.633 483.509 466.998 484.175 467.664 479.147 468.345 480.979 470.678 481.828 471.389 481.373 469.39 480.328 468.906 477.39 470.814 474.195 470.269 472.998 472.207 472.15 472.965 470.818 473.722 471.605 472.404 474.043 473.177 474.604 472.722 476.981 474.297 474.74 476.206 475.209 476.524 473.968 473.707 474.013 476.736 471.696 476.826 470.802 477.599 470.893 478.008 468.122Z" fill="#000000" fill-rule="nonzero" fill-opacity="1" transform="matrix(1 0 0 1.00016 1990 709)"/><path d="M633.437 447.48 633.437 447.48 635.451 447.616 636.087 449.57 635.466 452.462 632.013 452.886 627.167 456.309 626.546 458.838 623.29 461.322 620.942 466.229 617.065 470.06 614.46 475.043 614.082 473.801 614.794 472.665 613.294 471.968 612.431 469.303 608.887 468.576 607.691 466.91 606.51 467.38 603.98 466.683 603.829 469.318 603.193 469.152 603.662 469.803 601.209 469.939 599.467 468.94 598.589 470.575 596.923 470.393 597.241 471.544 595.424 471.862 594.788 473.831 593.44 472.665 591.138 474.452 589.805 473.286 589.245 473.937 588.366 473.422 587.261 474.74 584.732 474.043 586.246 470.439 585.368 469.924 585.928 469.273 584.823 468.44 584.262 469.091 583.157 468.258 580.309 468.546 579.84 470.03 579.916 470.848 578.643 470.499 578.159 471.984 576.19 472.786 567.346 468.213 565.437 471.968 562.757 471.756 561.424 470.575 560.243 471.06 560 472.862 557.714 472.499 555.185 473.922 553.458 472.907 552.519 473.71 550.641 473.165 550.323 472.014 551.747 471.878 551.671 471.06 549.551 470.181 549.46 469.364 547.491 469.152 549.096 465.789 552.398 451.493 552.867 437.999 551.08 427.58 548.233 421.492 541.251 412.435 533.558 405.847 527.727 403.848 526.546 404.121 525.547 403.454 528.091 399.759 530.362 399.396 530.908 397.972 533.089 396.745 533.028 395.927 535.633 395.337 535.194 394.671 536.148 393.883 535.239 392.55 535.981 391.43 535.527 390.763 539.434 389.218 537.935 387.719 538.722 387.401 537.905 383.963 539.646 379.92 537.935 378.102 537.344 374.998 535.951 375.119 533.119 371.636 533.467 370.681 531.922 368.364 532.922 368.395 532.877 367.577 533.391 366.123 531.059 364.124 529.439 363.927 528.954 362.443 531.726 358.46 531.801 356.355 533.24 357.036 533.982 355.931 535.209 356.279 534.77 355.628 537.193 352.614 536.36 352.099 537.526 351.645 536.708 351.145 539.268 350.554 538.389 349.237 539.782 349.116 539.343 348.449 540.343 348.48 539.904 347.828 541.024 346.556 544.25 346.965 542.327 344.815 542.675 343.86 537.662 343.724 537.783 342.437 538.571 342.134 537.162 338.545 535.769 338.681 535.421 339.635 534.724 337.848 532.952 338.121 532.513 337.454 533.24 336.349 532.422 335.849 533.149 334.728 532.271 333.426 532.967 331.502 531.71 330.336 529.802 331.896 528.273 329.594 527.758 327.323 528.318 326.702 527.228 325.051 528.621 324.93 529.09 322.688 531.816 321.643 534.103 319.947 536.496 319.856 536.011 318.387 537.253 315.858 537.874 316.025 537.117 313.435 540.116 313.526 542.448 312.632 544.129 310.754 545.568 311.436 546.688 310.194 548.127 310.875 550.293 310.451 551.944 311.466 553.882 310.709 554.23 309.77 555.609 309.634 556.684 307.589 558.123 308.271 557.82 306.347 559.107 304.621 559.849 307.195 562.196 306.302 562.53 305.348 564.695 304.924 566.346 305.938 569.511 305.529 571.859 308.316 575.978 307.135 577.477 305.741 576.887 309.24 573.873 312.042 574.358 313.496 573.676 315.389 570.587 320.28 571.95 323.037 572.737 322.734 574.267 325.005 572.071 328.322 574.494 331.911 572.692 335.077 573.237 337.333 577.19 336.621 580.4 337.015 578.174 339.529 578.098 341.619 576.145 342.391 576.978 342.891 576.296 344.799 578.401 346.45 577.265 350.615 572.828 359.399 579.34 360.974 581.521 360.519 583.974 361.216 584.323 360.247 587.609 361.443 589.457 359.05 591.244 358.763 590.35 357.46 592.637 355.734 592.97 354.78 592.137 354.28 596.817 352.432 597.271 350.191 603.905 350.463 607.57 348.601 609.629 349.434 609.629 352.326 611.31 356.203 613.703 356.082 616.444 357.884 617.065 360.928 615.339 362.034 615.293 364.124 614.506 364.427 614.794 365.563 616.808 365.578 618.701 366.895 618.761 367.698 617.762 367.683 618.443 368.652 616.929 370.091 617.55 370.257 616.823 371.363 618.035 376.694 616.808 376.346 613.673 377.603 612.961 378.723 611.159 379.026 609.781 382.07 607.206 382.676 609.569 384.645 608.584 387.537 610.962 389.506 609.614 390.46 609.584 392.55 608.796 392.868 609.145 394.807 605.752 405.787 606.6 406.286 605.313 408.058 605.783 408.71 605.056 409.845 606.131 410.663 604.359 413.904 606.812 416.691 607.933 415.403 611.204 415.767 611.265 416.585 612.916 416.766 614.688 418.584 614.354 419.553 616.384 419.583 616.459 420.401 617.929 421.068 617.126 423.506 618.368 423.854 619.125 425.656 621.079 427.004 620.125 427.807 619.867 429.609 621.472 434.062 620.973 435.531 622.305 436.697 621.487 439.15 622.82 440.316 620.533 442.103 622.018 442.77 621.7 443.754 624.214 444.436 624.759 445.92 627.651 446.45 627.969 445.481 631.165 447.147 631.877 446.026Z" fill="#000000" fill-rule="nonzero" fill-opacity="1" transform="matrix(1 0 0 1.00016 1990 709)"/><path d="M440.01 511.45 438.087 512.783 437.89 511.98 433.695 515.343 434.543 515.827 433.543 517.72 435.164 519.204 439.737 516.569 438.874 513.48 439.51 512.465 440.525 513.162 441.752 511.481 440.585 509.497Z" fill="#000000" fill-rule="nonzero" fill-opacity="1" transform="matrix(1 0 0 1.00016 1990 709)"/><path d="M422.17 0.487201 424.623 2.12282 422.033 2.97091 422.048 8.77129 419.595 9.7254 419.883 7.74146 417.051 7.52943 416.066 8.25637 417.02 9.27106 414.219 9.22563 415.415 10.2252 414.128 11.2096 416.596 11.2701 418.368 10.1343 417.672 12.0577 419.322 12.2394 419.913 13.451 419.958 14.0265 419.201 15.1623 420.155 15.4803 420.791 13.3752 418.914 10.6189 420.822 10.2706 423.745 20.5689 426.138 23.7644 428.455 25.082 431.892 29.792 431.499 31.4427 430.711 31.3064 429.348 30.1403 428.848 28.0958 427.652 27.4294 428.727 30.8218 430.227 31.1398 433.059 34.5474 438.102 36.1224 437.42 38.3184 435.663 39.3331 435.875 43.5736 437.132 42.0894 437.344 43.8007 439.646 44.2399 439.45 43.3615 438.223 43.4675 438.617 41.6805 440.04 40.5598 440.419 41.9682 441.343 40.6961 438.435 34.093 442.009 33.5933 444.447 32.2151 445.038 28.2775 446.007 29.4134 445.916 31.9728 448.112 31.3064 447.658 32.1545 449.369 33.1541 445.992 35.4561 443.948 35.1229 443.387 36.5313 444.25 39.9237 446.037 42.1802 447.158 42.9375 452.02 43.2404 453.383 41.7259 452.58 40.3478 454.428 38.8333 454.534 37.6823 456.078 39.5905 458.199 39.4845 459.652 41.5745 462.394 40.2266 463.302 40.7112 463.726 43.6644 464.635 44.3005 465.862 45.0274 465.241 46.7691 463.317 47.6929 464.211 49.3285 465.741 49.2831 465.786 46.6782 466.846 47.6172 467.512 46.6782 467.21 45.3455 466.225 45.0729 466.619 44.4519 468.875 44.1036 469.89 42.9678 470.511 44.0885 472.026 44.1188 472.434 45.3455 473.813 45.5575 474.585 44.6185 475.993 45.9361 475.569 46.6782 477.175 47.814 476.372 48.3289 477.129 50.949 478.75 52.5694 485.05 51.9636 486.474 54.7805 488.124 55.1743 487.927 56.3253 485.853 56.3253 484.641 57.9306 482.975 56.0527 481.173 54.0385 479.674 55.2046 480.915 55.3106 481.794 57.0371 481.597 57.5671 479.189 58.8999 484.883 59.1876 484.126 60.4446 485.535 61.4593 485.444 63.7461 486.792 64.4428 486.761 65.7907 488.563 66.669 489.109 67.0325 491.259 66.3359 493.501 67.4717 491.804 65.6998 488.079 65.9875 487.2 64.4276 489.26 64.4882 487.367 62.6103 487.579 61.3079 490.608 63.9127 491.729 63.5796 492.955 64.3974 493.198 62.1862 495.151 60.9747 495.591 59.6722 497.393 60.3235 498.014 57.4157 499.846 57.1734 500.407 56.3102 500.709 57.8852 499.558 58.0669 498.832 59.021 499.664 59.2785 499.316 59.8843 497.847 60.7778 499.77 62.262 498.15 62.4437 498.135 63.519 500.679 67.4111 502.996 66.8811 502.709 67.9715 501.345 68.0472 502.905 68.8347 503.239 69.9403 502.587 71.3942 501.724 70.8338 501.588 69.0619 500.649 69.2133 500.24 68.2441 499.634 69.8645 500.815 70.2129 501.754 73.8173 502.724 73.7113 502.118 75.3772 503.935 74.9228 504.753 75.8921 505.616 75.3317 505.298 74.5442 506.222 74.8017 505.949 76.7402 507.464 77.6186 507.57 79.2391 508.418 78.921 509.115 80.7838 508.903 81.3896 508.161 80.5869 507.676 81.3441 508.721 83.9945 510.902 84.0096 512.431 85.7209 512.401 90.1734 511.053 89.4162 510.463 92.324 511.644 95.4286 514.279 95.6406 513.295 96.4736 513.976 97.5791 513.825 98.9876 513.083 100.714 515.657 105.56 513.491 106.075 511.629 105.348 512.34 104.864 511.689 103.486 509.993 103.667 510.417 102.516 509.554 100.744 508.888 99.6388 506.161 100.199 503.466 98.8362 501.982 99.9114 501.421 97.9426 500.043 99.1239 500.876 102.123 500.134 102.713 501.058 103.289 502.39 100.775 502.936 102.804 506.192 103.652 507.525 102.971 508.66 104.288 510.402 104.364 508.66 106.62 508.115 112.481 510.478 118.055 512.446 119.645 515.233 119.236 516.354 122.098 516.278 123.052 517.278 125.021 515.279 126.566 515.127 128.595 512.098 129.746 511.916 131.776 508.872 132.911 508.66 133.76 508.282 135.047 507.464 134.486 504.208 137.152 503.163 136.819 502.769 136.274 500.815 139.242 499.24 139.045 498.453 137.44 496.681 137.001 496.651 135.213 498.832 133.866 499.801 135.531 501.845 136.107 499.649 133.381 502.905 131.064 503.587 126.066 502.133 130.897 499.089 132.578 499.195 131.003 498.059 131.548 496.211 129.519 497.862 129.08 496.015 128.701 495.56 129.519 494.44 128.656 494.379 126.808 495.409 125.006 494.197 125.869 493.591 125.4 492.138 125.536 492.092 128.292 492.986 127.671 494.5 129.368 492.88 128.959 492.592 129.746 494.091 131.018 496.045 130.201 497.923 133.442 496.817 133.154 495.303 134.184 495.363 135.001 494 135.365 492.274 133.078 491.426 133.366 489.639 131.73 487.715 128.55 484.141 128.747 479.749 124.976 482.718 129.61 484.808 130.882 486.337 134.062 489.836 136.319 491.259 140.605 491.335 142.665 489.094 144.573 483.293 144.982 481.309 141.256 480.582 136.077 475.039 126.324 443.024 83.4038 443.205 82.3437 444.402 82.374 444.629 80.3143 445.825 78.9059 445.28 77.982 446.174 77.77 446.537 74.1808 449.233 73.0146 450.838 74.1353 451.384 72.1362 452.232 73.2721 454.412 70.7581 454.473 69.6071 456.048 69.7888 456.381 68.8499 453.761 68.0775 452.716 71.7728 451.187 70.9398 449.975 72.8177 446.219 72.6057 445.174 73.6204 445.674 74.9986 444.493 75.1349 443.72 81.1473 442.675 81.6773 434.134 71.2427 430.681 65.5786 431.211 65.0789 424.896 58.0215 425.456 55.871 429.484 56.7796 431.514 53.9022 431.892 48.5713 430.166 43.0889 425.38 34.9411 412.75 17.3583 405.783 10.3463 404.178 10.0283 403.254 7.52943 401.27 6.52989 402.694 2.53172 410.463 4.92457 412.81 3.56155 413.143 2.09253 419.746 2.91034 422.17 0.487201Z" fill="#000000" fill-rule="nonzero" fill-opacity="1" transform="matrix(1 0 0 1.00016 1990 709)"/><path d="M763.907 1219.02 764.801 1220.1 763.15 1222.67 763.377 1223.76 761.454 1224.12 759.712 1221.29 763.907 1219.02ZM146.856 772.437 148.098 771.968 149.643 772.785 154.686 771.846 156.867 769.635 160.183 768.409 161.486 768.848 165.863 764.441 167.529 763.835 168.24 764.956 170.86 765.849 170.557 764.577 172.981 762.76 174.404 761.775 176.343 759.201 175.858 758.459 177.433 753.718 177.07 751.538 178.311 751.083 178.417 749.66 184.036 748.069 183.491 746.419 185.323 745.283 184.536 743.269 187.02 742.36 186.717 741.088 190.503 740.633 190.442 739.74 194.334 737.862 195.364 740.24 201.104 740.437 202.346 739.982 202.634 738.044 203.467 737.741 202.982 736.999 204.633 736.393 205.965 740.028 208.404 741.421 212.629 738.483 213.326 736.408 215.855 736.393 217.597 734.379 220.535 734.197 221.398 731.607 220.444 730.138 221.125 728.063 223.473 728.548 226.577 727.851 227.698 728.79 228.576 734.833 226.698 735.075 226.259 737.529 225.033 737.983 225.335 739.24 224.109 739.694 224.245 741.482 222.776 741.572 223.079 742.829 221.686 743.814 222.155 744.556 219.929 745.843 219.474 748.312 218.248 748.781 220.641 752.477 220.565 757.111 219.747 757.414 220.292 759.049 220.777 759.791 219.777 760.624 220.08 761.896 219.081 762.729 220.035 764.214 219.035 765.047 219.414 767.227 218.414 768.06 220.429 769.605 221.655 769.136 224.669 769.847 224.972 771.12 223.866 773.391 225.305 775.633 224.169 780.237 228.652 780.842 228.682 778.51 229.682 777.662 231.454 784.416 235.831 786.461 239.041 784.295 242.055 784.992 245.311 797.259 245.039 799.228 247.022 803.135 249.446 804.528 250.233 806.558 249.249 807.406 250.551 807.83 250.869 809.117 258.214 808.602 260.183 806.891 260.668 807.648 262.955 807.224 264.106 805.831 265.817 806.104 265.787 808.466 267.15 809.814 269.361 808.481 270.254 809.072 271.405 807.679 274.661 806.391 275.57 804.619 276.221 804.831 276.994 801.242 279.704 798.289 291.229 803.529 295.273 804.256 295.349 805.164 297.212 804.877 299.62 806.24 302.118 806.149 303.481 807.482 304.693 806.997 308.146 808.436 310.418 807.997 312.22 808.693 308.646 815.266 302.33 821.566 301.846 822.869 302.437 824.171 298.893 826.806 295.379 834.076 295.319 836.438 293.138 841.042 293.486 843.526 295.425 843.692 295.864 845.04 295.743 847.13 295.016 846.555 293.88 847.554 292.35 850.719 292.199 852.067 293.592 853.582 289.064 858.579 287.443 861.427 287.262 863.789 285.414 865.894 284.975 865.031 283.99 865.546 283.415 867.424 283.142 868.196 283.006 870.256 278.099 874.678 278.069 876.42 279.765 875.36 281.461 876.071 282.173 875.844 283.627 877.783 285.293 877.253 286.262 879.297 281.552 880.781 281.537 882.78 280.204 882.856 277.978 886.309 274.374 888.369 278.917 887.385 280.053 884.901 282.839 884.416 284.051 883.901 283.915 882.357 287.034 880.872 287.443 878.737 288.837 881.296 287.671 882.871 287.595 884.749 285.475 884.265 284.672 884.976 285.414 885.703 288.64 884.886 288.503 887.369 284.869 887.884 285.02 886.43 283.491 885.416 283.309 886.627 285.02 888.853 283.612 889.883 280.295 889.247 279.417 889.792 279.432 891.307 278.872 891.337 278.917 889.792 273.571 890.474 264.56 893.094 262 894.76 256.291 902.696 256.185 906.891 254.564 911.131 244.599 918.567 242.918 921.127 240.525 922.232 238.133 924.776 232.484 927.412 231.545 931.804 232.65 933 232.756 935.893 231.469 936.62 231.272 937.922 229.924 939.118 224.109 937.74 221.761 938.8 222.609 939.694 224.669 938.073 225.896 939.194 226.971 938.649 228.137 939.77 226.426 941.39 226.668 942.284 223.745 943.949 221.564 944.116 221.58 945.54 220.217 946.161 219.929 947.296 218.036 945.57 217.445 946.13 216.218 945.282 213.659 945.691 213.068 947.705 211.766 947.357 211.206 949.008 211.751 949.296 209.328 950.204 207.677 949.75 206.435 950.734 207.071 951.794 206.344 952.4 202.058 950.931 200.438 951.9 199.574 952.218 198.423 954.051 197.288 954.399 196.727 953.748 197.182 950.537 198.196 950.583 198.439 948.523 196.652 947.236 196.985 946.1 198.923 945.797 200.604 942.632 196.485 940.36 195.228 938.407 195.152 937.453 196.833 936.786 196.682 934.893 197.53 934.56 197.621 933.061 196.621 931.501 193.698 930.229 194.213 928.563 197.091 926.458 196.182 925.852 197.378 924.413 196.394 922.868 197.621 918.991 196.879 917.825 197.999 915.447 196.182 914.236 195.304 911.192 193.547 910.919 193.653 909.435 195.925 908.057 195.788 906.179 194.213 905.346 195.41 903.922 195.092 902.605 192.199 901.333 190.245 898.243 190.109 896.365 191.306 894.942 191.836 893.291 190.442 891.913 191.911 888.46 190.518 887.082 191.109 886.37 189.549 885.537 189.2 886.627 186.626 886.673 187.095 884.098 188.11 883.235 186.656 880.933 186.747 876.117 186.081 875.89 186.717 872.77 187.731 871.907 187.943 868.969 189.609 868.333 190.548 866.546 190.836 864.531 192.441 862.956 194.198 857.534 194.88 852.052 195.652 850.81 198.393 850.235 199.166 848.993 198.136 846.555 197.303 846.873 196.334 845.343 195.485 842.36 192.381 840.709 192.244 838.861 190.806 836.574 187.368 839.3 181.174 851.598 179.75 852.612 178.433 852.173 178.539 850.704 177.645 850.099 176.388 850.568 176.449 851.492 174.646 850.28 173.389 850.75 173.177 844.677 171.678 844.768 170.058 843.011 168.089 842.344 168.861 841.103 168.664 838.346 167.392 835.514 167.983 834.818 167.089 834.212 165.423 834.848 163.47 837.483 160.729 838.043 159.366 839.982 154.519 841.33 146.387 841.542 145.13 838.71 145.599 836.165 144.403 834.257 145.175 833.031 142.479 831.213 141.995 830.456 142.585 829.759 140.965 828.003 141.571 827.306 140.011 826.473 141.389 824.55 141.752 823.474 142.585 823.156 142.101 822.399 142.934 822.096 142.873 821.172 144.372 821.081 145.024 818.022 144.372 817.795 145.569 816.417 144.857 815.281 141.51 816.523 139.647 814.403 138.027 812.661 137.012 810.223 134.801 809.163 135.513 807.027 133.786 803.453 134.619 803.15 134.619 799.879 137.179 799.864 136.876 798.577 138.072 797.198 138.436 796.138 138.496 793.791 139.329 793.488 138.86 792.731 138.027 793.034 137.012 790.611 137.603 789.929 137.133 789.172 138.739 787.642 137.845 787.036 138.618 785.825 138.557 784.916 139.39 781.357 140.632 780.888 140.329 779.601 141.162 779.298 140.738 776.208 144.115 772.634 146.856 772.437Z" fill="#000000" fill-rule="nonzero" fill-opacity="1" transform="matrix(1 0 0 1.00016 1990 709)"/><path d="M197.212 1482.31 198.817 1482.63 198.121 1485.07 199.423 1485.96 199.559 1486.37 199.105 1489.62 201.256 1490.35 200.831 1491.56 199.362 1491.59 197.681 1489.81 194.652 1489.75 193.32 1491.5 195.622 1490.46 199.665 1492.74 197.575 1495.29 195.652 1494.2 196.273 1495.47 194.562 1495.76 194.047 1494.65 193.199 1495.91 192.941 1494.18 191.533 1494.06 190.881 1492.52 190.17 1492.56 190.351 1491.73 188.746 1491.38 187.656 1492.05 186.278 1489.68 187.853 1488.46 188.579 1489.4 190.185 1488.94 189.988 1489.75 191.306 1490.2 194.683 1484.04 193.411 1483.1 196.53 1483.13 196.697 1482.13 197.212 1482.31ZM3.69439 1327.93 7.04134 1330.12 10.8426 1329.53 11.5393 1330.11 12.6903 1328.53 17.1125 1329.76 20.4897 1331.7 18.1575 1331.77 18.8541 1333.47 16.325 1334.86 12.4177 1336.13 9.78251 1334.07 9.70679 1334.85 5.61775 1333.76 5.34515 1331.64 4.67879 1332.56 3.17947 1332.17 3.02803 1329.83 2.08906 1329.15 3.3915 1328.86 3.20976 1327.49 3.69439 1327.93ZM18.7481 1297.26 20.0354 1298.62 21.1107 1297.39 22.2011 1297.95 20.732 1299.65 21.0349 1300.65 18.2786 1301.79 21.3681 1301.42 24.1547 1298.95 24.3213 1299.76 25.3663 1299.8 23.5641 1301.01 24.8514 1301.97 25.1088 1303.89 20.6715 1303.78 21.5044 1304.31 20.6866 1305.78 22.6251 1306.12 22.0345 1307.3 20.9138 1308.25 18.4604 1305.98 18.1272 1306.78 20.2929 1308.77 20.202 1309.39 19.2782 1309.93 20.6866 1310.81 17.8697 1310.37 19.5053 1312.64 17.1428 1313.11 17.8394 1313.58 16.5976 1314.51 20.202 1314.2 20.3989 1315.66 19.2479 1316.49 16.3553 1315.54 18.1575 1317.11 16.4158 1317.48 16.7187 1317.96 18.2029 1317.63 19.6416 1318.55 19.3842 1319.38 21.2924 1321.64 19.5508 1323.28 21.6256 1323.32 20.8078 1324.2 21.9285 1324.71 20.1414 1325.56 22.5191 1326.21 21.8376 1328.06 22.5645 1328.65 21.4438 1329.79 18.3544 1329.71 14.7196 1327.14 12.8417 1324.7 12.6146 1326.38 10.8729 1326.77 10.4186 1326.26 12.3571 1324.76 11.8725 1320.63 10.1005 1320.37 9.37361 1318.94 8.64667 1321.28 10.1611 1322.59 10.5246 1324.31 9.90367 1324.71 8.91927 1323.91 7.81372 1321.44 7.19279 1322.7 9.08586 1324.76 9.05557 1326 7.85915 1325.7 9.8128 1328.09 9.22216 1328.89 6.96562 1329.23 4.54249 1327.85 3.5278 1325.2 3.30063 1326.93 1.34698 1327.88 0.408015 1323.99 1.66502 1322.19 0.968364 1321.19 4.25474 1320.14 5.96608 1317.63 6.67787 1317.05 9.82795 1316.19 13.084 1312.21 12.2359 1309.6 14.0684 1303.51 13.9018 1302.45 11.9179 1302.77 11.7816 1301.92 13.7353 1301.73 13.6141 1300.98 12.2208 1299.5 10.252 1300.07 12.0693 1298.48 15.0225 1298.36 15.8403 1297 16.3704 1297.36 15.6435 1299.38 16.9913 1297.24 17.8697 1298.26 18.7481 1297.26ZM26.169 1294.71 27.2594 1295.59 27.1231 1296.77 24.9271 1296.18 23.5187 1296.77 24.079 1295.38 26.169 1294.71ZM118.566 956.247 124.942 959.442 126.668 965.576 128.243 966.197 128.652 967.817 131.651 969.014 131.182 970.967 134.801 971.467 134.816 972.3 135.18 973.088 135.982 974.481 134.574 975.92 130.106 974.542 129.788 975.662 129.955 976.465 128.97 976.586 126.986 975.087 128.153 974.632 126.093 972.103 126.562 974.375 125.078 974.072 124.291 975.526 125.003 977.449 123.352 978.191 120.959 981.311 124.079 979.509 125.487 977.374 127.062 976.95 127.91 978.222 127.592 979.252 129.925 978.873 132.045 980.054 133.938 979.857 130.545 982.205 133.59 982.856 134.377 982.538 134.725 980.796 136.528 981.023 136.104 978.237 137.739 976.616 138.148 977.358 137.073 978.267 136.755 981.266 139.042 982.947 138.224 983.977 138.618 984.84 139.829 984.84 138.178 985.9 138.754 987.248 137.981 988.081 136.512 987.505 136.043 988.747 137.118 990.595 138.542 990.307 139.329 991.958 138.042 992.109 137.754 990.943 136.316 990.307 134.71 991.413 135.316 993.594 134.271 993.594 133.559 994.336 130.651 992.609 129.834 992.867 129.819 994.26 128.834 994.714 127.002 993.775 124.033 995.608 123.291 994.623 120.262 998.258 118.46 998.167 118.172 999.333 117.218 999.076 115.673 1000.18 113.856 999.197 112.508 999.515 112.024 998.379 109.888 999.318 108.434 996.622 107.798 998.334 106.708 998.016 107.102 1000.35 105.814 1001.21 105.178 1000.58 104.557 1001.97 102.997 1001.85 103.255 1003.01 101.407 1004.06 100.09 1003.45 100.62 1004.47 104.997 1003.82 104.981 1002.74 105.951 1002.83 106.435 1003.47 105.299 1006.48 103.361 1007.09 103.724 1004.98 101.528 1005.78 102.18 1006.13 101.135 1007.69 99.1204 1008.72 96.3035 1008.3 96.2278 1007.03 95.0617 1008.06 94.0016 1007.68 94.8345 1002.26 96.7276 1000.58 97.9089 1001.07 98.3783 999.667 100.786 998.864 101.241 997.955 101.089 996.441 100.408 997.561 100.029 996.971 102.043 993.487 100.817 993.381 100.302 991.443 101.544 990.867 103.936 987.172 105.769 986.733 108.147 987.96 109.252 987.46 108.949 986.445 108.131 986.491 107.753 984.84 108.692 983.901 107.45 983.401 107.783 981.811 106.814 981.72 106.708 978.858 107.677 978.313 107.026 979.252 107.556 980.539 110.312 980.16 112.66 976.253 112.599 973.83 111.403 972.83 112.145 972.255 111.721 970.543 108.737 966.015 109.782 965.303 108.889 962.577 110.206 960.245 109.782 959.064 113.841 956.671 116.537 958.125 118.566 956.247ZM45.4329 906.088 47.0079 906.739 46.9019 907.633 44.1304 909.935 43.7367 907.527 45.4329 906.088ZM38.8601 900.818 40.6017 901.832 39.7385 902.332 39.6931 903.65 38.0575 902.68 38.8601 900.818ZM53.8684 876.268 54.2319 876.692 49.8702 878.722 44.4333 879.585 44.3425 878.737 45.8569 878.707 46.599 877.692 53.8684 876.268ZM40.1171 876.223 41.6467 877.222 38.9056 878.283 38.8753 879.04 36.6642 878.449 36.9822 876.935 39.3296 877.101 39.1479 876.299 40.1171 876.223ZM57.6697 874.33 59.8202 874.648 60.532 875.678 56.8216 876.98 54.8679 876.496 54.7316 875.42 55.8069 874.436 57.6697 874.33ZM48.3861 863.986 50.4912 866.349 50.9455 872.482 50.5669 874.784 48.7344 876.632 47.3411 877.041 46.2658 876.132 42.9492 877.253 43.146 876.48 42.1616 876.011 42.9643 874.481 40.2231 873.467 41.3287 873.088 42.6008 872.391 42.1616 871.861 40.9501 871.24 41.0258 869.877 34.5288 876.405 34.7408 874.042 37.5425 871.18 38.4058 869.105 38.8601 869.408 38.845 867.697 40.208 866.061 40.9349 866.879 44.191 864.425 45.5389 865.182 47.1896 864.032 47.7197 864.955 48.3861 863.986ZM65.1208 826.534 65.5146 827.866 64.303 830.971 67.4682 838.816 65.8629 839.285 59.4113 834.136 61.5921 829.85 64.1819 826.655 65.1208 826.534ZM131.999 754.173 135.361 755.157 140.48 752.734 143.252 753.052 144.842 754.733 146.962 754.839 147.553 757.383 146.962 758.065 148.976 759.61 148.628 760.67 151.233 761.533 150.885 762.593 149.4 762.684 149.461 763.593 147.22 764.895 148.583 766.243 147.992 766.924 147.644 767.985 146.402 771.695 146.871 772.452 143.903 772.634 140.526 776.208 140.95 779.298 140.117 779.616 140.42 780.903 139.178 781.372 138.345 784.931 138.405 785.84 137.633 787.052 138.527 787.657 136.921 789.187 137.406 789.944 136.815 790.626 137.83 793.049 138.663 792.746 139.148 793.503 138.315 793.806 138.254 796.154 137.906 797.214 136.709 798.592 137.012 799.879 134.453 799.894 134.453 803.165 133.62 803.468 135.346 807.042 134.634 809.178 136.846 810.238 137.86 812.676 139.481 814.418 141.344 816.538 144.69 815.296 145.417 816.432 144.221 817.81 144.872 818.037 144.221 821.097 142.722 821.188 142.782 822.111 141.949 822.429 142.434 823.187 141.601 823.505 141.238 824.58 139.859 826.503 141.419 827.336 140.829 828.033 142.449 829.79 141.858 830.486 142.343 831.259 145.039 833.076 144.266 834.303 145.463 836.211 144.993 838.755 146.25 841.587 154.398 841.375 159.244 840.027 160.607 838.089 163.349 837.529 165.302 834.908 166.968 834.288 167.862 834.893 167.271 835.59 168.543 838.422 168.74 841.193 167.968 842.435 169.937 843.102 171.557 844.858 173.056 844.768 173.268 850.841 174.525 850.371 176.328 851.583 176.267 850.659 177.524 850.189 178.417 850.795 178.311 852.264 179.629 852.719 181.053 851.704 187.247 839.406 190.685 836.68 192.138 838.967 192.275 840.815 195.379 842.466 196.228 845.449 197.197 846.979 198.03 846.661 199.06 849.114 198.302 850.356 195.561 850.931 194.789 852.173 194.122 857.656 192.366 863.077 190.76 864.652 190.473 866.667 189.534 868.469 187.868 869.12 187.656 872.073 186.641 872.937 186.005 876.056 186.671 876.284 186.58 881.099 188.034 883.401 187.02 884.265 186.565 886.839 189.14 886.794 189.488 885.703 191.048 886.536 190.457 887.248 191.851 888.626 190.382 892.079 191.775 893.458 191.245 895.108 190.049 896.532 190.185 898.41 192.138 901.499 195.046 902.771 195.364 904.089 194.168 905.528 195.743 906.361 195.879 908.239 193.607 909.617 193.501 911.101 195.258 911.373 196.137 914.418 197.954 915.629 196.833 918.007 197.575 919.173 196.349 923.05 197.333 924.595 196.137 926.033 197.045 926.639 194.168 928.76 193.653 930.425 196.576 931.698 197.575 933.257 197.485 934.757 196.636 935.09 196.788 936.983 195.107 937.649 195.183 938.604 196.44 940.557 200.559 942.829 198.878 945.994 196.939 946.297 196.606 947.433 198.408 948.72 198.166 950.78 197.151 950.749 196.712 953.96 193.517 953.324 195.44 951.355 193.062 949.689 192.154 953.112 191.76 954.748 189.549 955.474 187.201 955.172 185.566 955.777 184.809 954.914 183.567 955.535 182.052 954.142 176.373 954.49 174.949 951.446 175.525 950.083 173.814 948.675 173.162 947.645 168.574 946.585 161.44 948.084 161.819 946.57 163.152 947.206 164.151 946.585 161.577 945.237 158.911 945.737 160.956 947.978 157.109 949.856 151.96 949.932 149.113 948.841 148.159 949.538 147.689 949.205 148.674 947.826 152.339 948.205 152.929 947.781 156.624 949.144 157.533 948.569 156.882 947.19 152.99 945.949 150.748 945.903 148.734 947.1 147.856 945.479 148.401 944.858 147.144 943.783 146.16 945.146 145.675 944.525 144.236 945.07 145.175 948.084 146.069 948.326 147.75 950.325 145.932 951.461 144.766 948.75 142.661 947.948 142.252 945.54 140.026 945.237 140.45 944.237 139.647 942.223 143.797 941.481 145.463 941.481 148.598 939.573 148.628 938.679 146.917 938.422 147.098 934.999 146.281 933.863 145.645 934.227 145.932 936.635 143.115 937.437 143.948 938.255 144.539 940.3 142.676 940.769 138.512 932.106 134.044 927.624 129.561 927.245 127.744 928.971 128.743 930.88 121.353 928.532 119.338 929.592 119.641 931.561 116.249 929.502 113.674 931.41 112.008 929.426 110.797 929.244 110.555 926.579 108.177 926.155 108.222 924.564 110.57 923.383 109.722 920.354 103.846 914.645 97.1516 911.267 91.3058 911.04 90.6697 913.267 88.3072 914.66 88.9584 917.613 87.7317 919.582 83.7184 919.022 80.2351 920.506 75.1314 919.446 73.7533 920.067 68.5889 917.507 64.8785 917.719 59.9565 916.023 56.2613 916.326 54.459 917.977 53.5958 916.401 51.4756 916.371 50.8395 915.614 47.9469 916.023 45.3723 911.828 44.2516 911.479 48.9464 907.83 50.5215 907.769 50.2186 905.937 51.203 904.271 51.9299 903.604 53.7472 903.226 54.5348 902.15 54.0804 898.334 58.8964 896.592 62.6068 892.2 59.7596 893.821 58.639 895.547 54.141 896.365 54.8377 897.077 52.99 897.819 51.9753 899.606 53.611 902.529 51.4756 902.968 50.5366 904.77 49.5522 902.877 50.8849 900.863 50.7486 900.015 48.8707 902.574 46.5081 905.255 46.4476 904.225 44.6756 903.256 43.0703 904.922 43.2521 905.709 41.9496 905.982 41.7527 904.256 42.7826 903.544 43.3884 900.712 45.0997 897.001 49.2342 895.517 53.9441 895.441 52.9294 894.215 53.8987 893.912 53.5352 893.518 50.0823 894.563 46.599 893.791 49.0221 887.778 50.0823 887.021 48.8404 887.172 43.6004 895.699 41.2227 896.047 37.8151 898.395 36.2553 899.258 34.8619 898.061 35.0437 893.215 33.5292 890.095 34.3167 886.506 33.7715 884.628 34.9377 883.856 34.9074 882.614 36.331 882.644 37.0125 881.539 39.2842 880.751 43.5701 880.812 45.1451 880.509 54.7619 877.995 57.8817 878.177 60.426 876.147 64.4999 875.663 66.287 874.284 64.3939 874.587 65.3329 872.619 64.7725 872.482 63.4398 875.087 56.8973 873.224 51.4301 875.163 52.8083 870.12 63.7881 867.03 65.6357 864.849 63.2278 866.682 58.8964 866.97 51.7785 869.923 51.5059 864.077 53.7624 863.926 54.8831 862.532 59.8657 860.397 62.3039 861.442 64.9088 860.412 66.4384 861.427 67.2714 860.836 65.2117 859.927 62.41 860.821 60.5775 860.321 60.6532 859.261 64.2424 858.155 66.3475 856.611 65.5297 855.838 59.8051 858.277 59.6536 859.397 53.9593 860.775 51.8542 862.487 49.1281 862.896 47.8257 862.138 49.007 855.763 50.5517 856.187 50.9758 855.611 50.0065 854.566 50.1428 853.385 52.5357 847.539 55.5646 847.024 60.7743 850.507 59.6536 848.963 59.2296 846.04 58.5935 848.66 55.6403 845.994 53.7321 845.707 53.4444 844.147 54.9891 841.178 57.2002 839.088 58.0332 836.983 64.303 840.557 61.1681 842.647 65.3934 840.83 68.9221 843.45 68.3163 844.631 69.3916 843.647 71.2998 844.328 73.5564 848.569 74.0561 851.446 71.527 853.915 70.7092 856.353 72.4811 853.43 75.1768 851.083 76.8882 852.946 72.1782 844.086 69.7854 843.011 67.65 840.497 69.2553 838.528 74.4348 837.619 75.7523 838.119 75.6463 837.104 75.8432 836.287 74.6165 835.938 73.7533 837.18 68.8767 837.968 67.9226 837.453 67.5743 834.742 65.772 832.258 66.2112 828.063 66.8473 827.836 65.666 825.625 67.3168 824.444 68.0135 822.732 69.8611 823.792 73.3443 829.472 75.9795 828.866 75.2071 828.26 73.4958 828.805 71.4664 824.413 70.2397 822.959 68.8464 822.687 71.8905 818.31 75.0254 822.475 75.0557 824.928 77.0245 826.685 77.1002 825.973 75.6766 825.261 75.51 822.687 80.0988 823.156 78.963 822.111 75.3434 822.005 73.5715 819.946 72.6023 817.28 72.6174 816.22 75.2071 814.327 75.5706 815.569 85.2328 818.34 85.0663 817.644 81.3558 816.447 77.7211 814.675 76.0401 814.933 75.2374 812.843 77.6 810.48 78.3269 809.859 79.7202 807.997 80.3714 806.815 81.6739 806.164 83.1277 803.181 84.93 802.741 86.4596 801.151 87.3379 801.242 87.6711 803.68 89.4582 806.618 88.9281 809.405 90.4426 809.935 90.9878 810.783 89.7459 813.873 91.533 811.858 93.2898 812.737 89.8519 808.724 90.276 807.906 91.0787 808.178 88.2769 801.409 88.2012 799.425 89.6551 798.137 90.7 797.471 93.6229 795.26 96.1067 795.533 98.9993 797.532 96.0764 801.378 96.3338 802.787 98.5298 804.241 96.7276 801.908 99.5748 797.653 96.3944 793.579 98.5298 791.671 102.149 792.519 100.271 790.656 100.574 787.96 103.467 785.779 106.36 787.945 104.572 784.371 106.284 783.917 109.025 781.312 110.797 781.236 111.539 779.267 113.462 778.556 114.81 781.145 115.992 781.327 116.204 773.603 115.386 772.301 117.006 771.453 118.748 767.273 122.155 763.578 123.73 762.76 124.745 763.244 126.305 761.472 127.305 762.108 129.394 769.408 129.606 773.558 130.803 774.118 129.637 765.471 125.866 758.474 131.666 758.701 133.15 755.475 131.999 754.173Z" fill="#000000" fill-rule="nonzero" fill-opacity="1" transform="matrix(1 0 0 1.00016 1990 709)"/><path d="M429.939 513.98 433.089 514.373 428.258 511.693 427.667 512.662 429.939 513.98ZM456.578 496.109 453.807 499.486 451.868 500.213 451.429 502.561 450.081 504.181 447.037 505.695 445.311 504.226 440.631 507.861 440.601 509.527 441.767 511.496 440.555 513.192 439.525 512.495 438.904 513.51 439.752 516.6 435.179 519.235 433.558 517.766 431.317 516.736 430.711 514.646 426.698 514.373 426.122 513.646 425.774 512.586 427.395 512.511 427.879 511.708 426.486 509.936 426.531 508.512 421.776 503.515 422.927 502.833 423.548 499.789 421.579 497.033 422.881 495.7 422.912 494.958 422.775 493.459 421.322 493.307 421.958 491.46 423.608 491.293 424.017 490.036 425.592 489.097 425.456 487.946 424.956 488.703 424.032 488.007 425.183 487.234 425.274 484.766 424.275 483.448 425.38 482.661 424.941 480.949 424.093 480.571 421.836 482.161 421.64 481.358 422.912 480.843 421.443 475.179 418.747 475.724 418.429 478.375 416.854 476.482 416.43 477.966 413.068 479.904 405.813 474.422 403.178 470.03 403.027 467.122 401.043 465.502 402.451 464.851 403.269 460.716 402.542 459.989 407.055 454.507 415.006 454.901 422.548 457.354 421.382 456.324 417.384 454.84 409.645 453.613 407.707 454.143 403.087 453.113 399.983 454.174 394.94 458.793 394.773 459.807 396.227 459.732 396.424 458.52 398.665 458.626 399.286 457.49 399.68 459.853 396.818 460.156 395.985 460.761 396.681 461.988 395.364 461.473 392.623 463.366 392.456 462.609 394.591 460.625 393.773 459.792 388.579 463.427 384.232 468.682 377.766 473.756 375.282 474.634 376.948 477.36 376.221 482.342 377.978 481.252 378.25 482.433 379.704 483.175 378.962 484.326 380.522 486.75 381.325 486.447 381.991 487.492 384.823 487.28 385.489 488.325 383.43 491.263 382.006 491.369 380.916 493.504 382.43 495.094 381.506 496.745 381.961 497.442 383.384 497.336 385.232 494.049 386.928 495.14 388.7 494.034 391.759 494.17 391.29 496.518 393.213 497.957 393.546 500.001 395.197 500.243 395.712 501.788 399.195 504.817 400.24 507.891 402.875 507.346 403.966 508.24 401.921 511.163 398.483 512.011 396.484 512.753 398.332 515.524 397.484 517.993 397.953 518.69 396.984 519.477 397.575 521.84 393.062 524.808 390.124 524.172 390.063 523.339 387.488 524.732 388.412 526.11 387.625 529.412 386.019 530.003 386.08 530.835 384.641 530.941 382.915 532.865 383.339 535.712 382.127 536.151 382.885 538.029 382.309 538.665 382.203 539.998 380.189 540.74 380.083 542.073 378.583 541.331 376.796 542.421 377.963 544.148 377.584 547.313 375.615 545.874 375.282 546.858 372.162 546.707 369.633 548.933 370.33 549.978 368.437 552.417 368.967 553.961 369.769 553.658 369.648 560.246 368.437 560.701 368.331 562.048 366.892 562.154 367.664 564.048 365.771 566.501 367.119 567.758 367.785 571.014 370.345 571.817 369.088 574.482 371.269 578.495 375.206 578.329 376.448 580.934 377.902 580.828 378.038 582.539 383.021 582.418 384.051 587.749 382.915 589.066 384.566 591.52 384.46 592.883 385.262 592.58 388.761 594.776 389.563 594.473 389.094 593.776 389.836 592.61 391.456 591.989 394.107 591.414 396.318 587.931 399.135 586.855 399.877 585.704 399.438 582.797 401.376 581.191 400.77 578.798 403.587 577.738 403.89 578.935 405.738 578.677 406.54 578.374 406.01 576.83 406.783 573.483 408.221 573.377 409.766 571.923 409.236 570.378 411.008 569.272 411.447 566.925 413.446 566.168 413.552 564.82 414.355 564.517 414.688 563.518 413.128 561.927 413.628 560.443 414.824 559.989 414.688 558.308 419.05 553.628 417.823 551.053 418.383 550.402 419.474 551.296 422.594 549.251 425.91 544.526 425.88 541.512 429.863 539.983 429.969 538.65 430.999 538.695 432.059 536.56 431.998 535.712 432.438 533.38 433.301 533.91 435.679 532.986 437.163 533.713 440.161 532.971 439.404 531.093 436.996 529.003 438.45 526.701 439.631 526.232 439.041 523.869 442.206 522.612 443.417 519.962 446.886 517.69 446.674 515.161 449.839 511.678 450.49 509.663 452.292 509.36 452.777 507.846 455.76 507.059 456.502 503.712 455.972 502.182 457.381 496.836 456.578 496.109Z" fill="#000000" fill-rule="nonzero" fill-opacity="1" transform="matrix(1 0 0 1.00016 1990 709)"/><path d="M516.748 316.282 516.96 316.358 517.505 317.645 518.883 317.524 519.534 318.524 523.896 318.508 525.547 319.523 528.273 318.478 529.787 320.78 531.832 321.643 529.106 322.688 528.636 324.93 527.258 325.051 528.348 326.702 527.788 327.338 528.318 329.609 529.848 331.911 531.756 330.351 533.013 331.518 532.331 333.426 533.21 334.743 532.483 335.849 533.316 336.349 532.589 337.454 533.028 338.105 534.815 337.833 535.512 339.62 535.86 338.666 537.253 338.545 538.662 342.134 537.874 342.437 537.753 343.724 542.766 343.845 542.418 344.799 544.341 346.95 541.115 346.541 539.995 347.813 540.434 348.464 539.434 348.434 539.873 349.085 538.48 349.206 539.358 350.524 536.799 351.115 537.632 351.614 536.466 352.069 537.299 352.569 534.876 355.582 535.315 356.249 534.088 355.9 533.361 357.021 531.922 356.34 531.847 358.445 529.075 362.428 529.56 363.897 531.18 364.094 533.513 366.093 532.998 367.547 533.043 368.364 532.044 368.334 533.588 370.651 533.24 371.62 536.072 375.104 537.465 374.967 538.056 378.072 539.767 379.905 538.026 383.933 538.844 387.371 538.056 387.689 539.555 389.188 535.648 390.733 536.102 391.399 535.375 392.52 536.269 393.853 535.315 394.64 535.769 395.307 533.164 395.897 533.225 396.715 531.044 397.942 530.514 399.38 528.242 399.744 525.698 403.439 526.698 404.106 523.169 404.59 516.838 401.395 513.613 400.698 510.932 397.805 508.085 396.654 505.253 394.186 500.543 387.795 493.395 383.63 485.126 382.388 482.99 381.01 479.825 380.601 475.312 377.936 472.662 373.847 468.239 369.712 465.862 359.732 468.224 353.038 475.373 347.525 477.447 347.253 480.734 344.981 482.218 342.664 485.792 342.285 492.365 337.53 498.953 337.151 502.057 337.924 506.464 335.788 509.978 330.624 513.613 327.519 516.748 316.282Z" fill="#000000" fill-rule="nonzero" fill-opacity="1" transform="matrix(1 0 0 1.00016 1990 709)"/><path d="M561.348 150.131 562.605 150.797 564.014 150.267 564.559 153.402 565.74 152.675 566.573 154.447 567.573 152.887 568.512 153.16 571.162 155.537 570.314 156.643 570.768 158.778 569.935 159.384 571.329 160.232 572.464 159.687 573.858 161.338 573.434 163.413 574.1 164.609 572.313 164.549 572.555 166.305 574.115 165.578 575.403 165.987 575.493 167.82 576.675 168.532 575.599 171.242 578.795 170.364 577.644 169.152 581.309 169.228 585.807 166.608 586.746 168.562 588.154 168.516 588.397 170.182 586.337 170.288 584.262 171.545 583.868 173.893 581.036 175.119 581.43 177.24 579.673 177.649 579.507 179.633 580.582 180.632 582.399 176.906 583.323 177.24 584.959 175.998 588.366 178.345 587.882 180.299 590.471 184.206 589.366 186.538 591.153 189.28 590.229 188.916 588.715 192.021 589.002 192.975 590.653 189.976 591.94 191.506 592.319 194.005 592.183 197.639 591.516 200.063 592.349 203.728 591.728 204.303 590.502 201.622 590.32 203.47 591.834 205.348 592.773 209.801 595.393 214.783 595.106 216.964 593.621 217.494 594.439 218.009 593.94 219.402 592.985 219.342 593.712 221.098 592.607 222.295 591.789 221.78 590.487 223.461 591.123 224.445 591.895 224.173 592.789 226.263 590.426 226.323 588.942 224.036 587.473 226.202 589.002 229.276 587.503 230.639 589.472 234.365 589.214 236.879 593.061 242.679 594.485 246.965 593.334 251.024 595.363 251.872 594.591 252.16 595.666 253.765 595.333 254.704 596.756 255.371 596.423 256.31 597.453 257.127 595.348 258.324 596.09 260.868 597.302 261.216 597.392 262.807 599.982 263.034 602.057 264.669 602.375 266.578 605.268 268.713 609.22 268.819 612.113 270.939 611.992 272.196 612.764 271.893 613.627 273.181 612.901 274.271 614.627 279.693 613.855 279.996 615.536 284.63 616.308 284.327 616.959 285.296 617.065 286.886 619.322 288.053 621.079 287.78 623.214 290.203 626.622 290.915 628.984 293.656 626.985 302.182 627.485 303.621 622.199 301.607 620.306 306.014 616.838 304.515 618.231 301.531 617.141 299.926 615.369 300.214 615.414 301.016 612.537 302.546 609.554 302.485 609.448 300.895 608.236 300.547 607.252 297.669 603.753 301.88 602.148 301.683 602.466 303.591 601.527 304.363 602.012 305.802 605.162 305.393 605.873 307.165 607.04 306.711 611.946 308.892 611.174 309.194 611.113 311.254 609.16 314.874 614.127 320.704 611.689 322.885 605.601 321.174 605.207 324.203 604.435 324.506 605.146 326.278 606.646 327.747 605.646 327.731 606.797 330.155 609.841 333.88 612.068 334.244 612.567 332.82 614.173 333.017 614.445 337.015 615.778 338.954 614.506 340.695 615.611 342.316 615.551 344.39 614.158 344.527 612.658 345.95 613.097 346.602 609.811 348.313 609.705 349.6 607.645 348.767 603.965 350.63 597.332 350.357 596.878 352.599 592.198 354.446 593.031 354.946 592.698 355.9 590.411 357.627 591.304 358.929 589.517 359.217 587.67 361.595 584.383 360.413 584.05 361.383 581.597 360.686 579.416 361.125 572.904 359.55 577.356 350.766 578.492 346.602 576.387 344.951 577.068 343.043 576.235 342.543 578.189 341.786 578.25 339.696 580.491 337.182 577.265 336.788 573.313 337.5 572.767 335.243 574.57 332.078 572.146 328.489 574.342 325.172 572.813 322.9 572.04 323.203 570.677 320.447 573.767 315.57 574.448 313.677 573.964 312.223 576.978 309.422 577.568 305.923 576.054 307.317 571.95 308.483 569.602 305.711 566.437 306.105 564.786 305.105 562.62 305.529 562.272 306.484 559.94 307.377 559.198 304.803 557.911 306.529 558.229 308.452 556.79 307.771 555.715 309.815 554.321 309.937 553.973 310.891 552.019 311.633 550.369 310.618 548.203 311.042 546.764 310.361 545.643 311.618 544.205 310.936 542.524 312.814 540.191 313.708 537.208 313.617 537.95 316.206 537.344 316.025 536.087 318.554 536.572 320.023 534.194 320.114 531.907 321.81 529.878 320.947 528.363 318.645 525.637 319.69 523.987 318.675 519.625 318.705 518.974 317.706 517.596 317.827 517.05 316.54 517.868 301.365 518.747 297.715 518.095 292.445 519.322 292.323 519.595 290.763 522.836 286.478 522.745 278.663 520.625 272.045 521.064 271.545 521.488 272.378 523.987 272.817 526.395 270.061 525.592 271.833 525.804 272.378 526.592 271.757 526.592 273.468 527.652 273.62 528.182 272.439 528.848 274.529 530.65 273.635 531.044 273.211 528.984 273.15 529.545 271.636 534.709 269.182 533.225 268.38 533.058 267.138 531.226 267.395 530.665 268.168 530.226 266.668 528.56 269.455 526.819 269.682 527.743 265.018 529.378 264.018 529.242 264.912 530.756 265.305 530.635 264.276 533.149 260.55 531.953 259.672 529.424 260.171 528.939 262.216 529.802 262.958 527.576 264.048 525.319 253.356 526.501 250.857 529.348 250.252 530.484 248.874 532.498 248.192 534.633 249.313 535.406 249.161 534.951 248.344 535.875 248.328 536.632 249.207 537.844 247.738 536.814 247.117 534.542 247.617 535.406 246.45 537.677 246.602 536.738 244.845 534.194 245.572 533.876 247.965 531.741 246.738 532.074 247.813 530.196 248.601 527.576 236.425 526.122 233.911 526.077 231.048 522.109 221.704 522.169 216.994 522.851 218.175 524.426 217.857 526.97 213.95 528.363 213.193 530.802 211.739 530.938 209.679 534.891 210.649 535.027 208.589 535.981 207.832 535.163 206.529 538.707 206.832 539.828 204.818 538.359 201.744 536.935 200.259 536.375 200.865 535.936 199.426 536.678 198.351 537.889 199.517 539.843 199.608 541.085 195.549 543.705 192.187 544.538 193.49 548.672 193.959 548.778 191.127 549.929 190.703 551.944 192.354 555.866 191.233 556.548 189.628 557.699 193.399 557.502 199.517 559.592 204.121 563.59 205.121 570.587 201.638 571.541 202.016 570.178 197.624 570.662 193.974 569.193 187.568 565.013 182.162 563.681 178.648 565.377 178.012 564.983 176.846 564.71 176.134 565.755 175.195 569.012 175.074 569.526 173.832 568.057 171.258 567.618 170.137 565.119 168.592 566.134 164.685 565.543 162.035 565.468 160.899 563.681 158.688 560.107 156.734 559.031 154.402 559.062 151.312 559.925 151.554 560.091 150.646 561.348 150.131Z" fill="#000000" fill-rule="nonzero" fill-opacity="1" transform="matrix(1 0 0 1.00016 1990 709)"/><path d="M536.39 478.208 536.905 478.738 535.739 480.692 532.952 483.433 531.892 483.236 534.83 478.208 536.39 478.208ZM547.491 469.152 549.475 469.364 549.551 470.181 551.671 471.045 551.747 471.862 550.338 471.999 550.656 473.15 552.534 473.68 553.473 472.877 555.2 473.892 557.729 472.468 560.016 472.832 560.258 471.03 561.439 470.56 562.772 471.741 565.453 471.953 567.361 468.197 576.205 472.771 578.189 471.968 578.674 470.499 579.946 470.848 579.87 470.015 580.355 468.531 583.202 468.243 584.307 469.076 584.868 468.425 585.973 469.258 585.413 469.909 586.276 470.409 584.762 474.013 587.291 474.71 588.397 473.407 589.26 473.907 589.82 473.256 591.168 474.422 593.47 472.635 594.818 473.801 595.454 471.832 597.271 471.529 596.953 470.378 598.619 470.56 599.498 468.924 601.239 469.939 603.693 469.803 603.223 469.136 603.859 469.303 604.026 466.668 606.555 467.365 607.736 466.895 608.917 468.561 612.461 469.288 613.325 471.953 614.824 472.65 614.127 473.786 614.506 475.028 613.991 478.344 611.81 482.661 612.158 484.523 607.191 488.915 606.146 492.444 605.025 493.292 604.677 496.503 602.92 499.38 602.845 501.622 598.559 505.968 596.59 511.178 591.668 513.631 590.608 516.812 587.564 520.295 579.582 524.444 574.252 530.215 569.648 532.017 569.072 533.44 565.18 536.924 561.363 536.893 558.713 539.801 556.835 540.18 554.76 539.286 553.534 539.665 552.534 534.364 551.141 533.259 552.761 527.564 552.474 525.913 548.218 523.248 548.233 520.885 546.022 522.021 542.16 521.294 539.025 522.869 534.845 526.489 533.861 524.838 531.847 524.187 532.346 522.4 530.696 520.159 534.497 512.268 533.028 510.163 531.135 509.709 527.091 512.98 526.682 514.54 528.136 514.464 527.955 516.751 529.363 514.358 530.044 515.161 529.53 516.721 530.196 518.114 529.09 519.174 527.924 517.751 525.971 519.507 524.608 519.22 522.911 520.552 521.639 519.204 519.489 518.902 516.793 514.464 518.641 510.663 522.73 509.254 524.29 505.544 525.547 505.105 528.136 500.789 529.908 500.486 530.787 499.032 531.65 499.925 530.272 501.319 530.408 502.349 531.438 501.167 531.877 498.835 530.196 497.108 530.665 495.957 536.163 492.126 537.905 488.673 538.783 482.994 543.281 478.572 547.491 469.152Z" fill="#000000" fill-rule="nonzero" fill-opacity="1" transform="matrix(1 0 0 1.00016 1990 709)"/><path d="M375.282 474.528 376.948 477.254 376.221 482.236 377.978 481.146 378.25 482.327 379.704 483.069 378.962 484.22 380.522 486.644 381.325 486.341 381.991 487.386 384.823 487.174 385.489 488.219 383.43 491.157 382.006 491.263 380.916 493.398 382.43 494.988 381.506 496.639 381.961 497.336 383.384 497.23 385.232 493.943 386.928 495.034 388.7 493.928 391.759 494.064 391.29 496.412 393.213 497.851 393.546 499.895 395.197 500.137 395.712 501.682 399.195 504.711 400.24 507.785 402.875 507.24 403.966 508.134 401.921 511.057 398.483 511.905 396.484 512.647 398.332 515.418 397.484 517.887 397.953 518.583 396.984 519.371 397.575 521.734 393.062 524.702 390.124 524.066 390.063 523.233 387.488 524.626 388.412 526.004 387.625 529.306 386.019 529.896 386.08 530.729 384.641 530.835 382.915 532.759 383.339 535.606 382.127 536.045 382.885 537.923 382.309 538.559 382.203 539.892 380.189 540.634 380.083 541.967 378.583 541.225 376.796 542.315 377.963 544.042 377.584 547.207 375.615 545.768 375.282 546.752 372.162 546.601 369.633 548.827 370.33 549.872 368.437 552.311 368.967 553.855 369.769 553.552 369.648 560.14 368.437 560.595 368.331 561.942 366.892 562.048 367.664 563.942 365.771 566.395 367.119 567.652 367.785 570.908 370.345 571.711 369.088 574.376 371.269 578.39 375.206 578.223 376.448 580.828 377.902 580.722 378.038 582.433 383.021 582.312 384.051 587.643 382.915 588.96 384.566 591.414 384.46 592.777 385.262 592.474 388.761 594.67 389.563 594.367 389.094 593.67 389.836 592.504 391.456 591.883 391.926 592.58 390.623 594.397 390.76 596.109 389.715 596.063 389.578 599.652 387.791 600.773 386.913 600.228 383.687 601.47 380.083 605.953 377.024 606.695 376.751 608.573 373.828 611.041 373.798 613.283 370.39 615.039 369.148 617.75 369.618 618.462 368.815 618.78 369.285 619.492 365.241 621.052 364.363 620.507 361.697 621.097 362 622.324 358.759 623.581 358.32 625.989 356.366 627.64 356.563 630.245 354.7 630.517 354.186 632.062 352.398 633.198 349.082 633.591 349.173 637.575 347.552 638.211 347.219 639.24 348.34 640.149 346.204 642.33 344.978 642.799 343.387 641.179 340.374 642.799 338.844 642.042 334.543 643.269 333.195 642.012 331.635 643.511 330.348 643.117 329.606 644.299 330.075 645.01 328.107 646.661 327.289 646.979 327.637 645.949 325.699 645.359 324.305 646.343 322.2 646.252 321.852 647.282 322.503 647.479 317.914 650.584 318.52 653.037 317.127 654.022 317.263 655.763 315.415 656.278 314.537 655.718 312.159 657.535 311.69 656.823 310.463 657.293 310.766 658.519 309.782 659.352 308.252 658.595 308.721 659.307 307.495 659.776 307.798 661.003 305.995 662.139 306.95 663.563 304.905 664.35 304.799 665.743 302.891 668.273 300.604 668.697 300.71 667.319 299.423 666.925 297.333 669.969 296.106 670.438 296.076 672.695 293.38 673.285 293.274 674.679 292.047 675.148 291.578 674.436 289.185 676.254 286.005 676.117 286.792 678.071 284.096 678.662 282.536 680.161 283.491 681.6 280.946 683.932 280.855 685.325 278.978 685.598 278.675 684.371 276.797 684.644 276.085 683.569 275.343 684.75 272.496 685.84 271.829 687.9 269.967 688.173 268.482 690.535 265.65 691.626 264.212 689.475 260.88 692.11 258.381 692.171 255.776 695.881 253.928 696.139 253.262 698.198 250.203 698.925 250.899 702.287 250.233 704.362 246.841 706.134 246.901 709.299 245.357 710.814 243.494 711.071 244.206 712.162 243.221 712.995 243.357 714.766 241.661 714.509 241.328 715.554 238.89 716.478 239.026 718.25 236.921 718.144 235.664 720.885 231.651 723.308 231.03 726.261 229.97 726.201 228.879 728.427 227.653 728.881 226.532 727.942 223.427 728.639 221.08 728.154 220.398 730.229 221.352 731.698 220.489 734.288 217.551 734.47 215.809 736.484 213.28 736.514 212.584 738.589 208.358 741.527 205.935 740.134 204.618 736.499 202.967 737.105 203.451 737.847 202.619 738.15 202.331 740.088 201.089 740.543 195.349 740.346 194.319 737.968 190.427 739.846 190.488 740.739 186.702 741.194 187.004 742.466 184.521 743.375 185.308 745.404 183.476 746.54 184.021 748.191 178.402 749.781 178.296 751.204 177.054 751.659 177.418 753.839 175.843 758.595 176.328 759.352 174.389 761.927 172.965 762.911 170.542 764.728 170.845 766.016 168.225 765.122 167.513 764.002 165.863 764.607 161.501 769.014 160.199 768.575 156.882 769.802 154.701 772.013 149.658 772.967 148.113 772.149 146.871 772.619 146.402 771.877 147.644 768.166 147.992 767.106 148.583 766.425 147.22 765.092 149.476 763.789 149.416 762.881 150.9 762.79 151.248 761.73 148.643 760.867 148.992 759.806 146.977 758.262 147.568 757.58 146.977 755.036 144.857 754.93 143.267 753.249 140.511 752.931 135.392 755.354 132.03 754.37 129.349 752.87 132.484 751.598 135.392 748.206 139.587 744.692 141.253 744.223 142.373 741.012 145.554 738.513 145.675 735.696 147.931 733.697 147.825 732.304 156.549 731.865 157.609 730.911 158.624 731.138 160.411 728.987 163.182 728.139 162.713 729.82 164.363 731.259 167.877 731.289 172.784 729.608 175.767 727.957 180.371 722.869 184.657 720.915 190.76 715.705 194.38 711.314 201.165 706.679 205.753 704.832 207.465 702.348 210.6 701 212.871 700.894 215.067 701.273 218.051 697.971 218.702 699.228 220.08 699.183 223.639 695.336 225.971 694.927 232.211 684.583 235.104 682.493 239.677 682.024 243.251 679.525 247.31 673.513 249.203 672.801 254.701 667.591 259.759 659.307 267.271 659.398 267.165 657.747 265.696 657.777 268.467 654.037 273.465 651.841 275.252 652.083 278.069 651.053 287.186 644.874 295.697 636.514 300.256 628.563 306.828 621.991 311.599 614.54 315.749 604.226 316.233 601.122 317.793 600.319 321.428 592.156 323.109 579.692 325.32 573.528 326.668 572.347 328.061 564.335 330.303 562.079 330.863 559.792 331.317 556.596 330.545 555.506 330.454 551.235 331.151 550.645 335.77 551.084 338.193 549.266 343.342 550.205 345.856 548.812 355.185 539.816 361.591 527.064 366.316 522.385 368.8 505.226 368.346 500.531 369.118 494.731 368.315 484.387 370.118 482.494 370.254 480.571 375.282 474.528Z" fill="#000000" fill-rule="nonzero" fill-opacity="1" transform="matrix(1 0 0 1.00016 1990 709)"/></g></g></g><path d="M1350.5 624.838C1350.5 497.074 1454.07 393.5 1581.84 393.5L2654.16 393.5C2781.93 393.5 2885.5 497.074 2885.5 624.838L2885.5 1550.16C2885.5 1677.93 2781.93 1781.5 2654.16 1781.5L1581.84 1781.5C1454.07 1781.5 1350.5 1677.93 1350.5 1550.16Z" stroke="#042433" stroke-width="41.25" stroke-linecap="butt" stroke-linejoin="miter" stroke-miterlimit="8" stroke-opacity="1" fill="none" fill-rule="evenodd"/><path d="M2114.47 659.044C2231.83 776.302 2231.91 966.495 2114.65 1083.85 2043.88 1154.68 1973.11 1225.51 1902.34 1296.35 1831.51 1225.57 1760.67 1154.8 1689.84 1084.03 1572.49 966.775 1572.41 776.582 1689.66 659.224 1806.92 541.867 1997.11 541.786 2114.47 659.044Z" stroke="#042433" stroke-width="41.25" stroke-linecap="butt" stroke-linejoin="miter" stroke-miterlimit="8" stroke-opacity="1" fill="none" fill-rule="evenodd"/><path d="M1752 838C1752 766.755 1809.76 709 1881 709 1952.24 709 2010 766.755 2010 838 2010 909.245 1952.24 967 1881 967 1809.76 967 1752 909.245 1752 838Z" stroke="#042433" stroke-width="27.5" stroke-linecap="butt" stroke-linejoin="miter" stroke-miterlimit="8" stroke-opacity="1" fill="none" fill-rule="evenodd"/><path d="M1972 929 2051.68 1002.76" stroke="#000000" stroke-width="27.5" stroke-linecap="butt" stroke-linejoin="miter" stroke-miterlimit="8" stroke-opacity="1" fill="none" fill-rule="evenodd"/></g></g></svg>